<?xml version="1.0" encoding="UTF-8"?>
<svg id="svg20" xmlns="http://www.w3.org/2000/svg" xmlns:xlink="http://www.w3.org/1999/xlink" viewBox="0 0 550 160">
  <defs>
    <style>
      .cls-1 {
        mask: url(#mask-1);
      }

      .cls-2 {
        fill: url(#Gradiente_sem_nome);
        stroke: #000ed1;
        stroke-width: 1.23px;
      }

      .cls-3 {
        font-family: Geist-SemiBold, Geist;
        font-size: 18px;
        font-weight: 600;
      }

      .cls-3, .cls-4, .cls-5, .cls-6, .cls-7, .cls-8 {
        fill: #fff;
      }

      .cls-9 {
        mask: url(#mask);
      }

      .cls-5 {
        fill-rule: evenodd;
      }

      .cls-10, .cls-8 {
        font-family: Geist-Black, Geist;
        font-weight: 800;
      }

      .cls-11 {
        fill: #25d366;
      }

      .cls-12 {
        mask: url(#mask-2);
      }

      .cls-6 {
        font-size: 90.93px;
      }

      .cls-7 {
        font-family: Geist-Bold, Geist;
        font-size: 21px;
        font-weight: 700;
      }

      .cls-13 {
        fill: #000ed1;
      }

      .cls-14 {
        font-family: Geist-Medium, Geist;
        font-weight: 500;
      }

      .cls-8 {
        font-size: 50.64px;
      }

      .cls-15 {
        fill: #d9d9d9;
      }
    </style>
    <linearGradient id="Gradiente_sem_nome" data-name="Gradiente sem nome" x1="445.62" y1="131.36" x2="445.62" y2="54.8" gradientTransform="translate(0 161.02) scale(1 -1)" gradientUnits="userSpaceOnUse">
      <stop offset="0" stop-color="#0125fc"/>
      <stop offset="1" stop-color="#001bb3"/>
    </linearGradient>
    <mask id="mask" x="476.73" y="73.12" width="46" height="17" maskUnits="userSpaceOnUse">
      <g id="path-8-outside-3_20891_52250" data-name="path-8-outside-3 20891 52250">
        <rect id="rect8" class="cls-4" x="476.73" y="73.12" width="46" height="17"/>
        <path id="path9" d="M478.58,89.45c-.45,0-.65-.08-.61-.24l4.35-14.48c.03-.08.09-.13.18-.16.1-.03.28-.04.51-.04h.38c.46,0,.67.08.63.24l-4.33,14.48c-.04.13-.28.2-.71.2h-.4ZM486.56,89.12c-.37,0-.61-.01-.71-.04-.09-.04-.14-.11-.14-.2v-6.74l-.02-2.33c-.01-.26-.02-.56-.02-.89,0-.09.05-.15.14-.18.09-.04.32-.06.67-.06h.1c.34,0,.56.02.65.06.11.03.16.09.16.18l.02.89h.02c.34-.41.78-.73,1.32-.97.55-.24,1.13-.36,1.74-.36.54,0,1.03.09,1.48.28.46.17.86.43,1.19.77.21.24.36.45.45.63.38-.54.89-.96,1.52-1.24.64-.29,1.32-.43,2.04-.43.54,0,1.03.09,1.48.28.46.17.86.43,1.19.77.36.37.61.82.77,1.36.16.53.24,1.19.24,2v5.99c0,.08-.05.14-.14.18-.09.04-.32.06-.67.06h-.12c-.37,0-.61-.01-.71-.04-.09-.04-.14-.11-.14-.2v-5.16c0-.87-.03-1.5-.1-1.9-.07-.41-.21-.74-.43-1.01-.36-.43-.95-.65-1.8-.65-.36,0-.72.07-1.09.2-.37.12-.67.28-.89.49-.14.13-.26.3-.36.51-.08.2-.14.49-.18.89-.04.55-.06,1.46-.06,2.71v3.91c0,.08-.05.14-.14.18-.09.04-.32.06-.67.06h-.12c-.37,0-.61-.01-.71-.04-.09-.04-.14-.11-.14-.2v-5.16c0-.87-.03-1.5-.1-1.9-.07-.41-.21-.74-.43-1.01-.36-.43-.96-.65-1.8-.65-.36,0-.72.07-1.09.2-.37.12-.67.28-.89.49-.14.13-.26.3-.36.51-.08.2-.14.49-.18.89-.04.55-.06,1.46-.06,2.71v3.91c0,.08-.05.14-.14.18-.09.04-.32.06-.67.06h-.12ZM507.96,89.32c-1.57,0-2.77-.45-3.6-1.36-.83-.92-1.24-2.19-1.24-3.81,0-1.11.19-2.09.57-2.94.4-.86.95-1.52,1.66-2,.71-.47,1.55-.71,2.51-.71.86,0,1.59.19,2.19.57.61.38,1.08.92,1.42,1.6.43.87.65,1.92.65,3.16,0,.29-.01.48-.04.57-.03.09-.08.14-.16.14h-6.96c.07,1.13.4,1.95.99,2.45.54.47,1.32.71,2.33.71.82,0,1.69-.21,2.61-.63l.16-.04c.11,0,.22.14.34.42l.1.24c.11.22.16.4.16.53,0,.09-.04.16-.12.2-1.03.6-2.22.91-3.58.91ZM510.31,83.07c-.01-.82-.23-1.51-.65-2.09-.41-.58-1-.87-1.78-.87s-1.38.25-1.9.75c-.5.49-.82,1.22-.95,2.21h5.28ZM507.78,75.49l-2.21,1.88s-.05.04-.08.04c-.12,0-.25-.09-.39-.26l-.14-.16c-.22-.25-.29-.43-.2-.53l1.8-1.92c.14-.17.43-.26.87-.26h.75c.43,0,.73.09.89.28l1.76,1.86s.06.09.06.14c0,.09-.09.24-.26.43l-.16.18c-.09.11-.19.18-.3.24-.09.04-.17.03-.22-.02l-2.17-1.9ZM517.21,89.32c-.61,0-1.2-.09-1.78-.28-.58-.18-1.07-.42-1.46-.71-.08-.07-.12-.13-.12-.2,0-.05.07-.22.2-.51l.1-.22c.09-.2.17-.33.22-.4.05-.07.11-.1.16-.1.08,0,.15.03.22.08.41.24.84.43,1.28.57.45.15.88.22,1.28.22.54,0,1.03-.13,1.48-.39.46-.28.69-.68.69-1.21,0-.47-.21-.83-.63-1.07-.42-.24-.97-.43-1.64-.57-.57-.13-1.04-.27-1.42-.41-.37-.16-.68-.36-.93-.59-.25-.22-.45-.5-.59-.83-.13-.34-.2-.7-.2-1.09,0-.63.16-1.18.49-1.64.33-.47.77-.84,1.32-1.09.57-.26,1.18-.4,1.84-.4.61,0,1.19.1,1.74.3.55.2,1.01.46,1.38.79.08.05.12.13.12.24,0,.13-.07.29-.2.47l-.14.2c-.17.24-.3.38-.38.43-.07.04-.14.03-.22-.04-.41-.29-.79-.51-1.15-.65-.36-.14-.74-.22-1.15-.22-.5,0-.96.11-1.36.34-.41.22-.61.58-.61,1.07s.18.82.53,1.03c.36.2.86.38,1.52.55.67.17,1.24.36,1.7.57.47.21.86.52,1.17.93.32.4.47.92.47,1.56,0,1.01-.38,1.81-1.13,2.39-.75.58-1.69.87-2.83.87Z"/>
      </g>
    </mask>
    <mask id="mask-1" x="370.06" y="64.47" width="28" height="25" maskUnits="userSpaceOnUse">
      <g id="path-10-outside-4_20891_52250" data-name="path-10-outside-4 20891 52250">
        <rect id="rect11" class="cls-4" x="370.06" y="64.47" width="28" height="25"/>
        <path id="path12" d="M383.39,85.05c.05.06.07.13.07.19,0,.09-.07.16-.21.19-.14.03-.37.05-.68.05h-1.08c-.47,0-.79-.02-.96-.05-.16-.05-.28-.14-.38-.28l-3.05-4.79c-.3-.47-.55-.81-.75-1.01-.2-.22-.44-.37-.7-.45-.27-.08-.65-.12-1.15-.12h-.77v6.38c0,.14-.08.23-.23.26-.14.03-.51.05-1.1.05h-.26c-.33,0-.6,0-.82-.02-.2-.02-.34-.04-.4-.07-.05-.05-.07-.12-.07-.21v-16.35c0-.11.06-.17.19-.19.12-.03.4-.05.82-.05h3.47c2.36,0,4.12.38,5.28,1.15,1.16.75,1.74,1.97,1.74,3.66,0,2.44-1.21,4.1-3.64,4.97.36.3.77.8,1.24,1.5l3.45,5.19ZM375.67,76.54c2.5,0,3.75-.99,3.75-2.98,0-1-.32-1.7-.96-2.09-.63-.41-1.57-.61-2.84-.61h-1.9v5.68h1.95ZM396.52,80.81c0,1.24-.39,2.28-1.17,3.12-.77.84-1.85,1.39-3.24,1.64v2.18c0,.12-.07.2-.21.23-.12.05-.44.07-.94.07h-.28c-.52,0-.85-.02-.99-.07-.12-.03-.19-.11-.19-.23v-2.09c-.83-.08-1.63-.25-2.39-.52-.77-.27-1.4-.59-1.9-.96-.17-.13-.26-.25-.26-.38,0-.14.1-.39.3-.75l.23-.42c.14-.25.25-.42.33-.52.08-.09.16-.14.23-.14.06,0,.14.02.23.07.77.41,1.48.73,2.14.96.67.22,1.39.33,2.16.33.92,0,1.67-.22,2.23-.66.58-.44.87-1.01.87-1.71,0-.47-.14-.88-.42-1.22-.28-.34-.65-.64-1.1-.89-.45-.27-1.1-.59-1.95-.96-1.08-.5-1.93-.97-2.56-1.41-.63-.44-1.09-.92-1.38-1.45-.3-.55-.45-1.2-.45-1.95,0-1.2.38-2.21,1.13-3.03.77-.83,1.79-1.36,3.07-1.6v-2.18c0-.13.06-.2.19-.23.14-.05.47-.07.99-.07h.28c.5,0,.81.02.94.07.14.03.21.11.21.23v2.14c1.3.17,2.39.56,3.26,1.15.16.11.23.22.23.33,0,.13-.1.38-.3.77l-.19.35c-.12.25-.23.43-.33.54-.08.09-.16.14-.24.14-.06,0-.12-.02-.19-.07-.52-.31-1.05-.55-1.62-.7-.56-.17-1.11-.26-1.64-.26-.95,0-1.69.2-2.2.61-.5.39-.75.92-.75,1.57,0,.42.14.8.42,1.13.28.31.63.59,1.03.82.41.23.99.53,1.76.89,1.09.5,1.97.98,2.63,1.43.66.45,1.16.98,1.5,1.57.34.58.52,1.28.52,2.11Z"/>
      </g>
    </mask>
    <mask id="mask-2" x="369.06" y="46.72" width="28" height="13" maskUnits="userSpaceOnUse">
      <g id="path-12-outside-5_20891_52250" data-name="path-12-outside-5 20891 52250">
        <rect id="rect14" class="cls-4" x="369.06" y="46.72" width="28" height="13"/>
        <path id="path15" d="M370.85,58.72c-.27,0-.44,0-.52-.03-.07-.02-.1-.06-.1-.13v-10.51h2.49c1.46,0,2.58.25,3.35.74.77.49,1.16,1.33,1.16,2.5s-.36,1.97-1.08,2.55c-.71.58-1.69.87-2.93.87-.52,0-1.04-.03-1.56-.1v3.94c0,.07-.04.11-.12.13-.08.02-.26.03-.53.03h-.15ZM373.04,53.57c.9,0,1.58-.19,2.05-.56.46-.38.7-.93.7-1.67,0-.8-.26-1.36-.77-1.67-.51-.32-1.25-.47-2.22-.47h-1.14v4.3c.4.06.87.09,1.39.09ZM382.41,58.86c-1.5,0-2.67-.46-3.5-1.39-.82-.93-1.23-2.24-1.23-3.94,0-1.15.2-2.14.59-2.99.4-.85.99-1.5,1.75-1.96.76-.45,1.66-.68,2.71-.68,1.5,0,2.66.46,3.48,1.39.83.93,1.25,2.24,1.25,3.93,0,1.15-.2,2.14-.61,2.99-.4.85-.97,1.51-1.73,1.97-.76.45-1.67.68-2.71.68ZM382.44,57.66c1.12,0,1.99-.39,2.61-1.16.62-.77.93-1.85.93-3.23s-.29-2.39-.86-3.1c-.56-.72-1.38-1.08-2.46-1.08s-1.98.38-2.59,1.14c-.6.76-.9,1.84-.9,3.23s.28,2.41.84,3.13c.56.71,1.37,1.07,2.43,1.07ZM396.16,58.49c.05.08.04.14-.04.18-.07.03-.21.04-.42.04h-.4c-.27,0-.45,0-.53-.03-.08-.02-.14-.07-.19-.15l-1.85-3.04c-.23-.37-.42-.62-.58-.77-.15-.16-.32-.26-.5-.3-.18-.05-.46-.07-.85-.07h-.7v4.19c0,.07-.04.11-.12.13-.08.02-.26.03-.53.03h-.15c-.27,0-.44,0-.52-.03-.07-.02-.1-.06-.1-.13v-10.51h2.71c1.44,0,2.53.24,3.26.71.73.46,1.1,1.22,1.1,2.27,0,1.57-.83,2.61-2.5,3.11.13.1.26.23.39.4.13.17.29.41.49.71l2.05,3.25ZM391.59,53.23c1.79,0,2.68-.71,2.68-2.12,0-.71-.23-1.21-.68-1.5-.44-.29-1.14-.43-2.07-.43h-1.42v4.05h1.5Z"/>
      </g>
    </mask>
  </defs>
  <path id="path2" class="cls-2" d="M364.12,30.28h163c5.12,0,9.26,4.15,9.26,9.26v56.81c0,5.12-4.15,9.26-9.26,9.26h-163c-5.11,0-9.26-4.15-9.26-9.26v-56.81c0-5.11,4.15-9.26,9.26-9.26Z"/>
  <rect id="rect1" class="cls-15" x="544" y="134" width="1" height="1"/>
  <path id="path10" class="cls-4" d="M478.58,89.79c-.45,0-.65-.08-.61-.24l4.35-14.48c.03-.08.09-.13.18-.16.1-.03.28-.04.51-.04h.38c.46,0,.67.08.63.24l-4.33,14.48c-.04.13-.28.2-.71.2h-.4ZM486.56,89.46c-.37,0-.61-.01-.71-.04-.09-.04-.14-.11-.14-.2v-6.74l-.02-2.33c-.01-.26-.02-.56-.02-.89,0-.09.05-.15.14-.18.09-.04.32-.06.67-.06h.1c.34,0,.56.02.65.06.11.03.16.09.16.18l.02.89h.02c.34-.41.78-.73,1.32-.97.55-.24,1.13-.36,1.74-.36.54,0,1.03.09,1.48.28.46.17.86.43,1.19.77.21.24.36.45.45.63.38-.54.89-.96,1.52-1.24.64-.29,1.32-.43,2.04-.43.54,0,1.03.09,1.48.28.46.17.86.43,1.19.77.36.37.61.82.77,1.36.16.53.24,1.19.24,2v5.99c0,.08-.05.14-.14.18-.09.04-.32.06-.67.06h-.12c-.37,0-.61-.01-.71-.04-.09-.04-.14-.11-.14-.2v-5.16c0-.87-.03-1.5-.1-1.9-.07-.41-.21-.74-.43-1.01-.36-.43-.95-.65-1.8-.65-.36,0-.72.07-1.09.2-.37.12-.67.28-.89.49-.14.13-.26.3-.36.51-.08.2-.14.49-.18.89-.04.55-.06,1.46-.06,2.71v3.91c0,.08-.05.14-.14.18-.09.04-.32.06-.67.06h-.12c-.37,0-.61-.01-.71-.04-.09-.04-.14-.11-.14-.2v-5.16c0-.87-.03-1.5-.1-1.9-.07-.41-.21-.74-.43-1.01-.36-.43-.96-.65-1.8-.65-.36,0-.72.07-1.09.2-.37.12-.67.28-.89.49-.14.13-.26.3-.36.51-.08.2-.14.49-.18.89-.04.55-.06,1.46-.06,2.71v3.91c0,.08-.05.14-.14.18-.09.04-.32.06-.67.06h-.12ZM507.96,89.65c-1.57,0-2.77-.45-3.6-1.36-.83-.92-1.24-2.19-1.24-3.81,0-1.11.19-2.09.57-2.94.4-.86.95-1.52,1.66-2,.71-.47,1.55-.71,2.51-.71.86,0,1.59.19,2.19.57.61.38,1.08.92,1.42,1.6.43.87.65,1.92.65,3.16,0,.29-.01.48-.04.57-.03.09-.08.14-.16.14h-6.96c.07,1.13.4,1.95.99,2.45.54.47,1.32.71,2.33.71.82,0,1.69-.21,2.61-.63l.16-.04c.11,0,.22.14.34.42l.1.24c.11.22.16.4.16.53,0,.09-.04.16-.12.2-1.03.6-2.22.91-3.58.91ZM510.31,83.41c-.01-.82-.23-1.51-.65-2.09-.41-.58-1-.87-1.78-.87s-1.38.25-1.9.75c-.5.49-.82,1.22-.95,2.21h5.28ZM507.78,75.82l-2.21,1.88s-.05.04-.08.04c-.12,0-.25-.09-.39-.26l-.14-.16c-.22-.25-.29-.43-.2-.53l1.8-1.92c.14-.17.43-.26.87-.26h.75c.43,0,.73.09.89.28l1.76,1.86s.06.09.06.14c0,.09-.09.24-.26.43l-.16.18c-.09.11-.19.18-.3.24-.09.04-.17.03-.22-.02l-2.17-1.9ZM517.21,89.65c-.61,0-1.2-.09-1.78-.28-.58-.18-1.07-.42-1.46-.71-.08-.07-.12-.13-.12-.2,0-.05.07-.22.2-.51l.1-.22c.09-.2.17-.33.22-.4.05-.07.11-.1.16-.1.08,0,.15.03.22.08.41.24.84.43,1.28.57.45.15.88.22,1.28.22.54,0,1.03-.13,1.48-.39.46-.28.69-.68.69-1.21,0-.47-.21-.83-.63-1.07-.42-.24-.97-.43-1.64-.57-.57-.13-1.04-.27-1.42-.41-.37-.16-.68-.36-.93-.59-.25-.22-.45-.5-.59-.83-.13-.34-.2-.7-.2-1.09,0-.63.16-1.18.49-1.64.33-.47.77-.84,1.32-1.09.57-.26,1.18-.4,1.84-.4.61,0,1.19.1,1.74.3.55.2,1.01.46,1.38.79.08.05.12.13.12.24,0,.13-.07.29-.2.47l-.14.2c-.17.24-.3.38-.38.43-.07.04-.14.03-.22-.04-.41-.29-.79-.51-1.15-.65-.36-.14-.74-.22-1.15-.22-.5,0-.96.11-1.36.34-.41.22-.61.58-.61,1.07s.18.82.53,1.03c.36.2.86.38,1.52.55.67.17,1.24.36,1.7.57.47.21.86.52,1.17.93.32.4.47.92.47,1.56,0,1.01-.38,1.81-1.13,2.39-.75.58-1.69.87-2.83.87Z"/>
  <path id="path13" class="cls-4" d="M383.39,85.39c.05.06.07.13.07.19,0,.09-.07.16-.21.19-.14.03-.37.05-.68.05h-1.08c-.47,0-.79-.02-.96-.05-.16-.05-.28-.14-.38-.28l-3.05-4.79c-.3-.47-.55-.81-.75-1.01-.2-.22-.44-.37-.7-.45-.27-.08-.65-.12-1.15-.12h-.77v6.38c0,.14-.08.23-.23.26-.14.03-.51.05-1.1.05h-.26c-.33,0-.6,0-.82-.02-.2-.02-.34-.04-.4-.07-.05-.05-.07-.12-.07-.21v-16.35c0-.11.06-.17.19-.19.12-.03.4-.05.82-.05h3.47c2.36,0,4.12.38,5.28,1.15,1.16.75,1.74,1.97,1.74,3.66,0,2.44-1.21,4.1-3.64,4.97.36.3.77.8,1.24,1.5l3.45,5.19ZM375.67,76.87c2.5,0,3.75-.99,3.75-2.98,0-1-.32-1.7-.96-2.09-.63-.41-1.57-.61-2.84-.61h-1.9v5.68h1.95ZM396.52,81.14c0,1.24-.39,2.28-1.17,3.12-.77.84-1.85,1.39-3.24,1.64v2.18c0,.12-.07.2-.21.23-.12.05-.44.07-.94.07h-.28c-.52,0-.85-.02-.99-.07-.12-.03-.19-.11-.19-.23v-2.09c-.83-.08-1.63-.25-2.39-.52-.77-.27-1.4-.59-1.9-.96-.17-.13-.26-.25-.26-.38,0-.14.1-.39.3-.75l.23-.42c.14-.25.25-.42.33-.52.08-.09.16-.14.23-.14.06,0,.14.02.23.07.77.41,1.48.73,2.14.96.67.22,1.39.33,2.16.33.92,0,1.67-.22,2.23-.66.58-.44.87-1.01.87-1.71,0-.47-.14-.88-.42-1.22-.28-.34-.65-.64-1.1-.89-.45-.27-1.1-.59-1.95-.96-1.08-.5-1.93-.97-2.56-1.41-.63-.44-1.09-.92-1.38-1.45-.3-.55-.45-1.2-.45-1.95,0-1.2.38-2.21,1.13-3.03.77-.83,1.79-1.36,3.07-1.6v-2.18c0-.13.06-.2.19-.23.14-.05.47-.07.99-.07h.28c.5,0,.81.02.94.07.14.03.21.11.21.23v2.14c1.3.17,2.39.56,3.26,1.15.16.11.23.22.23.33,0,.13-.1.38-.3.77l-.19.35c-.12.25-.23.43-.33.54-.08.09-.16.14-.24.14-.06,0-.12-.02-.19-.07-.52-.31-1.05-.55-1.62-.7-.56-.17-1.11-.26-1.64-.26-.95,0-1.69.2-2.2.61-.5.39-.75.92-.75,1.57,0,.42.14.8.42,1.13.28.31.63.59,1.03.82.41.23.99.53,1.76.89,1.09.5,1.97.98,2.63,1.43.66.45,1.16.98,1.5,1.57.34.58.52,1.28.52,2.11Z"/>
  <path id="path16" class="cls-4" d="M370.85,59.05c-.27,0-.44,0-.52-.03-.07-.02-.1-.06-.1-.13v-10.51h2.49c1.46,0,2.58.25,3.35.74.77.49,1.16,1.33,1.16,2.5s-.36,1.97-1.08,2.55c-.71.58-1.69.87-2.93.87-.52,0-1.04-.03-1.56-.1v3.94c0,.07-.04.11-.12.13-.08.02-.26.03-.53.03h-.15ZM373.04,53.91c.9,0,1.58-.19,2.05-.56.46-.38.7-.93.7-1.67,0-.8-.26-1.36-.77-1.67-.51-.32-1.25-.47-2.22-.47h-1.14v4.3c.4.06.87.09,1.39.09ZM382.41,59.2c-1.5,0-2.67-.46-3.5-1.39-.82-.93-1.23-2.24-1.23-3.94,0-1.15.2-2.14.59-2.99.4-.85.99-1.5,1.75-1.96.76-.45,1.66-.68,2.71-.68,1.5,0,2.66.46,3.48,1.39.83.93,1.25,2.24,1.25,3.93,0,1.15-.2,2.14-.61,2.99-.4.85-.97,1.51-1.73,1.97-.76.45-1.67.68-2.71.68ZM382.44,58c1.12,0,1.99-.39,2.61-1.16.62-.77.93-1.85.93-3.23s-.29-2.39-.86-3.1c-.56-.72-1.38-1.08-2.46-1.08s-1.98.38-2.59,1.14c-.6.76-.9,1.84-.9,3.23s.28,2.41.84,3.13c.56.71,1.37,1.07,2.43,1.07ZM396.16,58.83c.05.08.04.14-.04.18-.07.03-.21.04-.42.04h-.4c-.27,0-.45,0-.53-.03-.08-.02-.14-.07-.19-.15l-1.85-3.04c-.23-.37-.42-.62-.58-.77-.15-.16-.32-.26-.5-.3-.18-.05-.46-.07-.85-.07h-.7v4.19c0,.07-.04.11-.12.13-.08.02-.26.03-.53.03h-.15c-.27,0-.44,0-.52-.03-.07-.02-.1-.06-.1-.13v-10.51h2.71c1.44,0,2.53.24,3.26.71.73.46,1.1,1.22,1.1,2.27,0,1.57-.83,2.61-2.5,3.11.13.1.26.23.39.4.13.17.29.41.49.71l2.05,3.25ZM391.59,53.57c1.79,0,2.68-.71,2.68-2.12,0-.71-.23-1.21-.68-1.5-.44-.29-1.14-.43-2.07-.43h-1.42v4.05h1.5Z"/>
  <g class="cls-9">
    <path id="path11" class="cls-13" d="M477.96,89.22l-.59-.18h0s0,.03,0,.03l.6.15ZM482.31,74.73l-.59-.2h0s0,.02,0,.02l.59.18ZM482.49,74.58l-.15-.6h-.01s-.01,0-.01,0l.17.59ZM484.01,74.77l.59.18h0s0-.03,0-.03l-.6-.15ZM479.68,89.26l.59.18h0s-.59-.18-.59-.18ZM478.58,89.45v-.62c-.1,0-.17,0-.22-.01-.05,0-.06-.01-.05,0,0,0,.1.04.18.15.04.06.07.13.08.21.01.08,0,.14,0,.19l-.6-.15-.6-.15c-.05.19-.03.41.11.61.12.17.28.25.39.3.21.08.47.1.71.1v-.62ZM477.96,89.22l.59.18,4.35-14.48-.59-.18-.59-.18-4.35,14.48.59.18ZM482.31,74.73l.59.2c-.02.06-.06.12-.11.17-.05.05-.1.07-.13.07l-.17-.59-.17-.59c-.25.07-.49.25-.59.56l.59.2ZM482.49,74.58l.15.6h0s0,0,0,0c0,0,0,0,0,0,0,0,.01,0,.02,0,.02,0,.04,0,.08,0,.07,0,.15,0,.26,0v-1.23c-.24,0-.48.01-.66.06l.15.6ZM483,74.54v.62h.38v-1.23h-.38v.62ZM483.38,74.54v.62c.1,0,.17,0,.23.01.06,0,.07.01.06,0,0,0-.09-.03-.17-.14-.04-.06-.07-.13-.09-.21-.01-.08,0-.15,0-.2l.6.15.6.15c.05-.19.02-.42-.12-.61-.12-.17-.29-.25-.39-.29-.22-.08-.48-.1-.72-.1v.62ZM484.01,74.77l-.59-.18-4.33,14.48.59.18.59.18,4.33-14.48-.59-.18ZM479.68,89.26l-.59-.18c.04-.13.12-.2.17-.24.04-.03.07-.04.05-.03-.01,0-.05.01-.11.02-.06,0-.14,0-.23,0v1.23c.24,0,.47-.02.67-.07.16-.04.52-.18.63-.56l-.59-.18ZM478.97,89.45v-.62h-.4v1.23h.4v-.62ZM485.85,89.08l-.24.57.04.02h.05s.15-.59.15-.59ZM485.71,82.14h.62s-.62,0-.62,0ZM485.69,79.81h.62s0-.02,0-.02h0s-.62.02-.62.02ZM485.81,78.75l.17.59h.04s.04-.03.04-.03l-.24-.57ZM487.23,78.75l-.24.57.05.02h.05s.15-.59.15-.59ZM487.39,78.92h-.62s.62,0,.62,0ZM487.41,79.81h-.62s.01.62.01.62h.6v-.62ZM487.43,79.81v.62h.29l.18-.22-.47-.4ZM488.75,78.84l-.24-.57h0s.25.57.25.57ZM491.97,78.77l-.23.57h0s.01,0,.01,0l.21-.58ZM493.16,79.54l.46-.41h0s0-.02,0-.02l-.45.43ZM493.61,80.17l-.55.28.46.92.6-.84-.5-.36ZM495.14,78.92l-.25-.56h0s.26.56.26.56ZM498.65,78.77l-.24.57h.01s.01,0,.01,0l.21-.58ZM499.84,79.54l-.45.43h0s.44-.43.44-.43ZM500.61,80.9l-.59.17h0s.59-.17.59-.17ZM500.71,89.06l.24.57h0l-.24-.57ZM499.2,89.08l-.24.57.05.02h.05s.15-.59.15-.59ZM498.97,81.83l-.61.1h0s.61-.1.61-.1ZM498.53,80.82l-.48.39h0s.47-.39.47-.39ZM495.65,80.37l.19.59h0s0,0,0,0l-.21-.58ZM494.76,80.86l.42.46h0s-.42-.46-.42-.46ZM494.4,81.37l-.57-.25h0s0,.02,0,.02l.57.23ZM494.23,82.26l-.62-.06h0v.02l.62.04ZM492.53,89.08l-.24.57.05.02h.05s.15-.59.15-.59ZM492.29,81.83l-.61.1h0s.61-.1.61-.1ZM491.86,80.82l-.48.39h0s.47-.39.47-.39ZM488.97,80.37l.19.59h0s.01,0,.01,0l-.21-.58ZM488.08,80.86l.42.46h0s-.42-.46-.42-.46ZM487.73,81.37l-.57-.25h0s0,.02,0,.02l.57.23ZM487.55,82.26l-.61-.06h0v.02l.61.04ZM486.56,89.12v-.62c-.18,0-.32,0-.42,0-.11,0-.15-.01-.14-.01l-.15.6-.15.6c.19.05.51.06.86.06v-.62ZM485.85,89.08l.24-.57s.1.05.16.13c.06.09.08.17.08.24h-1.23c0,.15.04.32.15.47.1.15.24.24.37.29l.24-.57ZM485.71,88.88h.62v-6.74h-1.23v6.74h.62ZM485.71,82.14h.62s-.02-2.34-.02-2.34h-.62s-.62.01-.62.01l.02,2.33h.62ZM485.69,79.81l.62-.03c-.01-.25-.02-.54-.02-.86h-1.23c0,.34,0,.64.02.92l.62-.03ZM485.67,78.92h.62c0,.06-.02.16-.1.27-.08.1-.17.14-.21.15l-.17-.59-.17-.59c-.14.04-.3.12-.42.28-.13.16-.16.34-.16.49h.62ZM485.81,78.75l.24.57s-.05.02-.04.01c.01,0,.04,0,.08-.01.09,0,.21-.01.38-.01v-1.23c-.19,0-.35,0-.49.02-.12.01-.28.03-.43.09l.24.57ZM486.48,78.69v.62h.1v-1.23h-.1v.62ZM486.58,78.69v.62c.16,0,.28,0,.36.01.04,0,.07,0,.08.01.02,0,0,0-.04-.01l.24-.57.24-.57c-.14-.06-.3-.08-.42-.09-.13-.01-.29-.02-.48-.02v.62ZM487.23,78.75l-.15.6s-.11-.03-.19-.12c-.09-.1-.12-.22-.12-.3h1.23c0-.17-.05-.36-.2-.52-.13-.15-.3-.22-.43-.25l-.15.6ZM487.39,78.92h-.62s.02.9.02.9h.62s.62-.03.62-.03l-.02-.89h-.62ZM487.41,79.81v.62h.02v-1.23h-.02v.62ZM487.43,79.81l.47.4c.27-.33.64-.6,1.1-.8l-.25-.57-.25-.57c-.62.27-1.14.65-1.55,1.14l.47.4ZM488.75,78.84l.24.57c.48-.2.97-.31,1.49-.31v-1.23c-.69,0-1.35.14-1.98.41l.24.57ZM490.49,78.49v.62c.47,0,.88.08,1.25.23l.23-.57.24-.57c-.53-.22-1.11-.32-1.72-.32v.62ZM491.97,78.77l-.21.58c.38.14.69.35.96.62l.45-.43.45-.43c-.4-.41-.87-.72-1.42-.92l-.21.58ZM493.16,79.54l-.46.41c.19.22.31.38.36.5l.55-.28.55-.28c-.12-.25-.32-.51-.55-.77l-.46.41ZM493.61,80.17l.5.36c.32-.45.74-.79,1.27-1.04l-.26-.56-.26-.56c-.73.33-1.32.82-1.77,1.45l.5.36ZM495.14,78.92l.25.56c.57-.25,1.16-.38,1.78-.38v-1.23c-.8,0-1.56.16-2.29.49l.25.56ZM497.17,78.49v.62c.47,0,.88.08,1.25.23l.24-.57.24-.57c-.53-.22-1.11-.32-1.72-.32v.62ZM498.65,78.77l-.21.58c.38.14.69.35.95.62l.45-.43.45-.43c-.4-.41-.87-.72-1.42-.92l-.21.58ZM499.84,79.54l-.44.43c.28.29.49.65.62,1.11l.59-.17.59-.17c-.18-.63-.49-1.17-.92-1.62l-.44.43ZM500.61,80.9l-.59.18c.14.45.21,1.05.21,1.82h1.24c0-.84-.08-1.57-.26-2.17l-.59.18ZM500.85,82.89h-.62v5.99h1.24v-5.99h-.62ZM500.85,88.88h-.62c0-.09.03-.19.1-.28.06-.08.12-.11.14-.11l.24.57.24.57c.11-.05.24-.13.35-.26.11-.14.17-.31.17-.48h-.62ZM500.71,89.06l-.24-.57s.05-.02.04-.01c-.01,0-.04,0-.08,0-.09,0-.21.01-.38.01v1.24c.19,0,.35,0,.49-.02.12-.01.28-.03.43-.09l-.24-.57ZM500.04,89.12v-.62h-.12v1.24h.12v-.62ZM499.92,89.12v-.62c-.18,0-.32,0-.42,0-.11,0-.15-.01-.14-.01l-.15.6-.15.6c.19.05.51.06.86.06v-.62ZM499.2,89.08l.24-.57s.1.05.16.13c.06.09.08.17.08.24h-1.23c0,.15.04.32.15.47.1.15.24.24.37.29l.24-.57ZM499.07,88.88h.62v-5.16h-1.23v5.16h.62ZM499.07,83.72h.62c0-.87-.03-1.55-.11-2l-.61.1-.61.1c.06.34.09.93.09,1.8h.62ZM498.97,81.83l.61-.1c-.08-.5-.26-.94-.57-1.31l-.47.4-.47.4c.14.16.24.39.3.71l.61-.1ZM498.53,80.82l.48-.39c-.52-.64-1.34-.88-2.28-.88v1.23c.75,0,1.13.19,1.32.43l.48-.39ZM496.73,80.17v-.62c-.43,0-.87.08-1.29.23l.21.58.21.58c.31-.11.6-.16.88-.16v-.62ZM495.65,80.37l-.19-.59c-.43.14-.82.34-1.12.63l.42.45.42.45c.14-.13.35-.26.65-.36l-.19-.59ZM494.76,80.86l-.42-.46c-.22.2-.38.45-.51.72l.57.25.57.25c.06-.14.14-.24.21-.3l-.42-.46ZM494.4,81.37l-.57-.23c-.11.28-.18.64-.22,1.06l.62.06.61.06c.04-.38.09-.61.14-.72l-.57-.23ZM494.23,82.26l-.62-.04c-.04.58-.06,1.5-.06,2.75h1.23c0-1.25.02-2.13.06-2.66l-.62-.04ZM494.17,84.97h-.62v3.91h1.23v-3.91h-.62ZM494.17,88.88h-.62c0-.09.03-.19.1-.28.06-.08.12-.11.14-.11l.24.57.24.57c.11-.05.24-.13.35-.26.11-.14.17-.31.17-.48h-.62ZM494.03,89.06l-.24-.57s.05-.02.04-.01c-.01,0-.04,0-.08,0-.09,0-.21.01-.38.01v1.24c.19,0,.35,0,.49-.02.12-.01.28-.03.43-.09l-.24-.57ZM493.36,89.12v-.62h-.12v1.24h.12v-.62ZM493.24,89.12v-.62c-.18,0-.32,0-.42,0-.11,0-.15-.01-.14-.01l-.15.6-.15.6c.19.05.51.06.86.06v-.62ZM492.53,89.08l.24-.57s.1.05.16.13c.06.09.08.17.08.24h-1.24c0,.15.04.32.15.47.1.15.24.24.37.29l.24-.57ZM492.39,88.88h.62v-5.16h-1.24v5.16h.62ZM492.39,83.72h.62c0-.87-.03-1.55-.11-2l-.61.1-.61.1c.06.34.09.93.09,1.8h.62ZM492.29,81.83l.61-.1c-.08-.5-.26-.94-.57-1.31l-.47.4-.47.4c.14.16.24.39.3.71l.61-.1ZM491.86,80.82l.48-.39c-.52-.64-1.34-.88-2.28-.88v1.23c.75,0,1.13.19,1.32.43l.48-.39ZM490.06,80.17v-.62c-.43,0-.87.08-1.3.23l.21.58.21.58c.31-.11.6-.16.88-.16v-.62ZM488.97,80.37l-.19-.59c-.43.14-.82.34-1.12.63l.42.45.42.45c.14-.13.35-.26.65-.36l-.19-.59ZM488.08,80.86l-.42-.46c-.22.2-.38.45-.51.72l.57.25.57.25c.06-.14.14-.24.21-.3l-.42-.46ZM487.73,81.37l-.57-.23c-.11.28-.18.64-.22,1.06l.61.06.61.06c.04-.38.09-.61.14-.72l-.57-.23ZM487.55,82.26l-.61-.04c-.04.58-.06,1.5-.06,2.75h1.23c0-1.25.02-2.13.06-2.66l-.62-.04ZM487.49,84.97h-.62v3.91h1.23v-3.91h-.62ZM487.49,88.88h-.62c0-.09.03-.19.1-.28.06-.08.12-.11.14-.11l.24.57.24.57c.11-.05.24-.13.35-.26.11-.14.16-.31.16-.48h-.62ZM487.35,89.06l-.24-.57s.05-.02.04-.01c-.01,0-.04,0-.08,0-.09,0-.21.01-.38.01v1.24c.19,0,.35,0,.49-.02.12-.01.28-.03.43-.09l-.24-.57ZM486.68,89.12v-.62h-.12v1.24h.12v-.62ZM504.36,87.95l-.46.41h0s.46-.41.46-.41ZM503.69,81.2l-.56-.26h0s.56.26.56.26ZM510.05,79.06l-.33.52h0l.33-.52ZM511.48,80.66l-.55.28h0l.55-.28ZM512.09,84.4l-.59-.17h0l.59.17ZM504.98,84.53v-.62h-.65l.04.65.62-.04ZM505.96,86.98l.41-.46h0s-.4.46-.4.46ZM510.9,87.06l-.15-.6h-.05s-.05.04-.05.04l.26.56ZM511.06,87.02v-.62h-.08l-.07.02.15.6ZM511.4,87.44l.57-.24h0s-.57.24-.57.24ZM511.5,87.68l-.57.24h0s0,.03,0,.03l.56-.26ZM511.54,88.41l-.28-.55h-.02s-.02.02-.02.02l.31.53ZM510.31,83.07v.62h.63v-.63s-.63,0-.63,0ZM509.66,80.98l-.51.36h0s.5-.36.5-.36ZM505.98,80.86l.43.44h0s-.43-.44-.43-.44ZM505.04,83.07l-.61-.08-.09.7h.71v-.62ZM507.78,75.49l.41-.47-.4-.35-.41.34.4.47ZM505.57,77.36l-.4-.47-.02.02-.02.02.44.44ZM505.1,77.15l.47-.4h0s-.46.4-.46.4ZM504.96,76.99l.46-.41h0s-.46.41-.46.41ZM504.76,76.45l-.45-.42h0s0,.02,0,.02l.46.41ZM506.56,74.54l.45.42h.01s0-.02,0-.02l-.47-.4ZM509.07,74.56l-.47.4h.01s.01.02.01.02l.45-.42ZM510.83,76.41l-.45.42h0s0,.01,0,.01l.44-.44ZM510.63,76.99l.46.41h0s-.47-.41-.47-.41ZM510.47,77.17l-.46-.41h0s.46.41.46.41ZM510.17,77.4l.24.57h.02s.02-.02.02-.02l-.28-.55ZM509.96,77.38l.44-.44h-.02s-.02-.03-.02-.03l-.41.47ZM507.96,89.32v-.62c-1.45,0-2.46-.42-3.14-1.16l-.46.42-.46.42c.98,1.07,2.36,1.57,4.05,1.57v-.62ZM504.36,87.95l.46-.41c-.7-.78-1.09-1.88-1.09-3.4h-1.23c0,1.72.44,3.16,1.4,4.23l.46-.41ZM503.12,84.14h.62c0-1.04.18-1.93.52-2.69l-.56-.25-.56-.25c-.42.95-.63,2.02-.63,3.2h.62ZM503.69,81.2l.56.26c.35-.76.83-1.34,1.44-1.74l-.34-.51-.34-.51c-.82.54-1.44,1.3-1.88,2.25l.56.26ZM505.35,79.2l.34.51c.6-.4,1.31-.61,2.17-.61v-1.23c-1.07,0-2.03.26-2.85.81l.34.51ZM507.86,78.49v.62c.76,0,1.37.17,1.86.48l.33-.52.33-.52c-.72-.46-1.57-.67-2.52-.67v.62ZM510.05,79.06l-.33.52c.5.32.9.76,1.2,1.35l.55-.28.55-.28c-.39-.78-.94-1.4-1.65-1.85l-.33.52ZM511.48,80.66l-.55.28c.38.76.59,1.72.59,2.89h1.24c0-1.31-.23-2.46-.72-3.44l-.55.28ZM512.13,83.82h-.62c0,.14,0,.24,0,.32,0,.09-.01.1,0,.09l.59.17.59.17c.05-.19.06-.47.06-.74h-.62ZM512.09,84.4l-.59-.17s.04-.11.13-.19c.1-.09.22-.12.31-.12v1.23c.17,0,.35-.05.51-.19.14-.13.21-.28.25-.4l-.59-.17ZM511.93,84.53v-.62h-6.96v1.23h6.96v-.62ZM504.98,84.53l-.62.04c.07,1.22.43,2.23,1.21,2.89l.4-.47.4-.47c-.41-.35-.71-.97-.77-2.01l-.62.04ZM505.96,86.98l-.41.46c.69.61,1.64.87,2.74.87v-1.24c-.93,0-1.54-.22-1.92-.56l-.41.46ZM508.3,87.7v.62c.92,0,1.88-.24,2.86-.69l-.26-.56-.26-.56c-.86.39-1.64.58-2.35.58v.62ZM510.9,87.06l.15.6.16-.04-.15-.6-.15-.6-.16.04.15.6ZM511.06,87.02v.62c-.11,0-.2-.04-.25-.07-.02-.02-.04-.03-.05-.04,0,0-.01-.02-.01-.02,0,0,0,.01.02.04.02.03.04.07.06.13l.57-.24.57-.24c-.07-.16-.15-.32-.26-.46-.1-.12-.31-.33-.64-.33v.62ZM511.4,87.44l-.57.24.1.24.57-.24.57-.24-.1-.24-.57.24ZM511.5,87.68l-.56.26c.04.09.07.16.08.21.02.05.01.07.01.06h1.24c0-.27-.1-.55-.22-.8l-.56.26ZM511.65,88.21h-.62s.01-.12.06-.2c.05-.08.11-.13.16-.16l.28.55.28.55c.13-.06.25-.17.34-.31.09-.15.12-.3.12-.44h-.62ZM511.54,88.41l-.31-.53c-.92.54-2,.82-3.26.82v1.24c1.45,0,2.76-.33,3.89-1l-.31-.53ZM510.31,83.07h.62c-.01-.94-.26-1.76-.77-2.46l-.5.36-.5.36c.34.46.52,1.03.53,1.74h.62ZM509.66,80.98l.51-.36c-.54-.76-1.33-1.13-2.28-1.13v1.23c.6,0,.99.21,1.27.61l.51-.36ZM507.88,80.11v-.62c-.9,0-1.69.31-2.33.93l.43.44.43.44c.39-.38.87-.58,1.47-.58v-.62ZM505.98,80.86l-.43-.44c-.63.62-.99,1.51-1.13,2.57l.61.08.61.08c.12-.91.4-1.49.77-1.85l-.43-.44ZM505.04,83.07v.62h5.28v-1.23h-5.28v.62ZM507.78,75.49l-.4-.47-2.21,1.88.4.47.4.47,2.21-1.88-.4-.47ZM505.57,77.36l-.44-.44s.16-.14.36-.14v1.23c.25,0,.42-.13.52-.22l-.44-.44ZM505.49,77.4v-.62c.09,0,.15.03.15.04,0,0,0,0-.02-.01-.01-.01-.03-.03-.06-.06l-.47.4-.47.4c.17.2.46.48.87.48v-.62ZM505.1,77.15l.46-.41-.14-.16-.46.41-.46.41.14.16.46-.41ZM504.96,76.99l.46-.41s-.07-.08-.09-.11c-.02-.03-.02-.03-.01-.02,0,.01.02.07.02.15,0,.09-.05.18-.11.26l-.46-.41-.46-.41c-.25.28-.21.62-.13.83.07.2.21.37.34.52l.46-.41ZM504.76,76.45l.45.42,1.8-1.92-.45-.42-.45-.42-1.8,1.92.45.42ZM506.56,74.54l.47.4s-.04.02.03,0c.07-.02.19-.04.37-.04v-1.23c-.46,0-1.01.08-1.34.48l.47.4ZM507.43,74.28v.62h.75v-1.23h-.75v.62ZM508.18,74.28v.62c.18,0,.29.02.36.04.07.02.07.04.05.02l.47-.4.47-.4c-.34-.4-.88-.49-1.36-.49v.62ZM509.07,74.56l-.45.42,1.76,1.86.45-.42.45-.42-1.76-1.86-.45.42ZM510.83,76.41l-.44.44s-.06-.07-.09-.13c-.02-.06-.04-.12-.04-.17h1.24c0-.23-.09-.43-.24-.57l-.44.44ZM510.89,76.55h-.62c0-.07.02-.12.02-.13,0-.02,0-.02,0,0,0,.01-.02.03-.04.06-.02.03-.05.06-.08.1l.47.4.47.4c.1-.11.19-.23.26-.35.06-.1.15-.28.15-.49h-.62ZM510.63,76.99l-.46-.41-.16.18.46.41.46.41.16-.18-.46-.41ZM510.47,77.17l-.46-.41c-.05.06-.09.08-.11.09l.28.55.28.55c.19-.09.35-.23.48-.38l-.46-.41ZM510.17,77.4l-.24-.57s.08-.03.18-.02c.11.01.21.06.29.13l-.44.44-.44.44c.12.13.29.21.47.22.17.02.32-.03.42-.07l-.24-.57ZM509.96,77.38l.41-.47-2.17-1.9-.41.47-.41.47,2.17,1.9.41-.47ZM515.43,89.04l-.19.59h0l.19-.59ZM513.97,88.33l-.4.47h.01s.02.02.02.02l.36-.5ZM514.04,87.62l-.56-.26h0l.56.26ZM514.14,87.4l-.56-.26h0s.56.26.56.26ZM514.36,87l-.48-.39h0l.48.39ZM514.74,86.98l-.39.48.04.03.04.02.31-.53ZM516.02,87.56l.19-.59h0l-.19.59ZM518.79,87.38l.31.53h0s-.32-.53-.32-.53ZM517.21,84.53l-.14.6h0s.13-.6.13-.6ZM515.78,84.12l-.24.57h.01s.01,0,.01,0l.22-.58ZM514.85,83.53l.43-.45h0s0-.01,0-.01l-.41.46ZM514.26,82.7l-.58.22h0s0,.03,0,.03l.57-.25ZM514.56,79.97l.5.36h0s-.51-.36-.51-.36ZM515.88,78.88l.25.56h0s-.26-.56-.26-.56ZM519.46,78.79l-.21.58h0l.21-.58ZM520.84,79.58l-.41.46.03.03.04.02.34-.51ZM520.76,80.29l-.5-.36h0s.51.36.51.36ZM520.62,80.48l.5.36h0s-.51-.36-.51-.36ZM520.25,80.92l.32.53h.01s.01-.02.01-.02l-.34-.51ZM520.03,80.88l.4-.47-.02-.02h-.02s-.36.49-.36.49ZM518.89,80.23l.23-.57h0l-.23.57ZM516.38,80.35l-.3-.54h0l.3.54ZM516.3,82.44l-.32.53h0s0,0,0,0l.3-.54ZM517.82,82.99l-.15.6h0s.15-.6.15-.6ZM519.52,83.57l-.26.56h0s.25-.56.25-.56ZM520.68,84.5l-.5.37h0s0,.02,0,.02l.48-.39ZM520.03,88.45l-.38-.49h0l.38.49ZM517.21,89.32v-.62c-.54,0-1.07-.08-1.59-.25l-.19.59-.19.59c.64.2,1.3.31,1.96.31v-.62ZM515.43,89.04l.19-.59c-.53-.17-.95-.38-1.28-.62l-.36.5-.36.5c.46.34,1.01.6,1.64.8l.19-.59ZM513.97,88.33l.4-.47s.1.08.1.28h-1.24c0,.33.2.56.34.67l.4-.47ZM513.85,88.13h.62c0,.05,0,.09,0,.1,0,.01,0,.02,0,.02,0,0,0-.02.02-.06.03-.07.07-.17.13-.31l-.56-.26-.56-.26c-.07.15-.12.28-.16.38-.02.05-.04.1-.05.15-.01.03-.04.13-.04.24h.62ZM514.04,87.62l.56.26.1-.22-.56-.26-.56-.26-.1.22.56.26ZM514.14,87.4l.56.26c.04-.09.08-.16.1-.21.03-.05.04-.07.04-.06l-.48-.39-.48-.39c-.11.13-.2.33-.3.52l.56.26ZM514.36,87l.48.39s-.03.03-.08.06c-.05.03-.14.07-.25.07v-1.23c-.33,0-.54.21-.64.33l.48.39ZM514.52,86.91v.62s-.06,0-.1-.02c-.03-.01-.06-.03-.07-.04l.39-.48.39-.48c-.17-.13-.37-.21-.6-.21v.62ZM514.74,86.98l-.31.53c.45.26.91.47,1.4.63l.19-.59.19-.59c-.41-.13-.79-.3-1.16-.52l-.31.53ZM516.02,87.56l-.19.59c.5.16.99.25,1.47.25v-1.24c-.34,0-.7-.06-1.09-.19l-.19.59ZM517.3,87.77v.62c.65,0,1.25-.16,1.79-.48l-.31-.53-.31-.53c-.35.21-.73.31-1.17.31v.62ZM518.79,87.38l.32.53c.64-.39.99-.99.99-1.74h-1.23c0,.3-.11.51-.39.68l.32.53ZM519.48,86.17h.62c0-.7-.34-1.26-.95-1.61l-.3.54-.3.54c.23.13.32.28.32.53h.62ZM518.85,85.11l.3-.54c-.49-.28-1.1-.49-1.81-.64l-.13.6-.13.6c.64.14,1.12.31,1.47.51l.3-.54ZM517.21,84.53l.14-.6c-.55-.13-.99-.26-1.34-.39l-.22.58-.22.58c.42.16.92.3,1.5.44l.14-.6ZM515.78,84.12l.24-.57c-.31-.13-.56-.29-.75-.47l-.43.45-.42.45c.31.29.68.53,1.11.71l.24-.57ZM514.85,83.53l.41-.46c-.18-.16-.33-.36-.44-.62l-.57.25-.57.25c.18.4.43.75.75,1.04l.41-.46ZM514.26,82.7l.58-.22c-.1-.27-.16-.56-.16-.87h-1.23c0,.45.08.89.24,1.31l.58-.22ZM514.07,81.61h.62c0-.52.13-.94.38-1.28l-.5-.36-.5-.36c-.41.58-.61,1.25-.61,2h.62ZM514.56,79.97l.51.35c.26-.38.61-.67,1.07-.88l-.25-.56-.26-.56c-.65.29-1.18.73-1.58,1.3l.51.35ZM515.88,78.88l.26.56c.48-.22,1-.34,1.58-.34v-1.23c-.74,0-1.44.15-2.1.45l.26.56ZM517.72,78.49v.62c.54,0,1.05.09,1.53.26l.21-.58.21-.58c-.62-.22-1.27-.33-1.95-.33v.62ZM519.46,78.79l-.21.58c.49.18.88.4,1.18.67l.41-.46.41-.46c-.44-.39-.97-.69-1.59-.91l-.21.58ZM520.84,79.58l-.34.51s-.09-.08-.12-.14c-.03-.06-.04-.11-.04-.14h1.23c0-.29-.12-.57-.39-.75l-.34.51ZM520.96,79.81h-.62s0-.05,0-.02c-.01.02-.03.07-.08.14l.5.36.5.36c.16-.22.31-.51.31-.83h-.62ZM520.76,80.29l-.51-.35-.14.2.51.35.51.35.14-.2-.51-.35ZM520.62,80.48l-.5-.36c-.08.11-.14.19-.19.24-.02.03-.04.04-.05.05-.01.01,0,0,.02-.01l.34.51.34.51c.11-.07.21-.18.28-.26.08-.09.16-.2.26-.33l-.5-.36ZM520.25,80.92l-.32-.53c.09-.05.21-.08.32-.06.1.02.16.06.17.07l-.4.47-.39.47c.09.08.22.16.4.19.19.03.38,0,.53-.1l-.32-.53ZM520.03,80.88l.36-.5c-.44-.31-.86-.55-1.27-.72l-.23.57-.23.57c.3.12.64.31,1.02.58l.36-.5ZM518.89,80.23l.23-.57c-.43-.18-.9-.26-1.38-.26v1.23c.33,0,.64.06.91.17l.23-.57ZM517.74,80.01v-.62c-.6,0-1.15.13-1.66.41l.3.54.3.54c.31-.17.66-.26,1.07-.26v-.62ZM516.38,80.35l-.3-.54c-.29.16-.53.38-.7.67-.17.29-.24.61-.24.94h1.23c0-.16.03-.26.07-.32.04-.07.1-.14.22-.2l-.3-.54ZM515.76,81.41h-.62c0,.65.26,1.22.84,1.56l.32-.53.31-.53c-.14-.08-.23-.2-.23-.5h-.62ZM516.3,82.44l-.3.54c.42.23.98.43,1.67.61l.15-.6.16-.6c-.64-.17-1.09-.33-1.38-.5l-.3.54ZM517.82,82.99l-.15.6c.65.17,1.18.35,1.59.54l.26-.56.26-.56c-.5-.23-1.11-.43-1.8-.61l-.15.6ZM519.52,83.57l-.25.56c.38.17.68.41.92.73l.5-.37.5-.37c-.37-.5-.84-.87-1.41-1.12l-.25.56ZM520.68,84.5l-.48.39c.21.26.34.63.34,1.18h1.23c0-.75-.18-1.41-.61-1.95l-.48.39ZM521.16,86.06h-.62c0,.84-.3,1.45-.89,1.9l.38.49.38.49c.91-.71,1.37-1.69,1.37-2.88h-.62ZM520.03,88.45l-.38-.49c-.62.48-1.43.74-2.45.74v1.24c1.24,0,2.32-.32,3.2-1l-.38-.49Z"/>
  </g>
  <g class="cls-1">
    <path id="path14" class="cls-13" d="M383.39,85.05l-.51.34h0s.01.03.01.03l.49-.37ZM380.53,85.43l-.18.59h.03s.03.02.03.02l.11-.61ZM380.15,85.15l-.52.33h0s.51-.33.51-.33ZM377.1,80.36l-.52.33h0s.52-.33.52-.33ZM376.35,79.35l-.45.42h0s0,.02,0,.02l.44-.44ZM375.65,78.91l-.17.59h0l.17-.59ZM373.73,78.79v-.62h-.62v.62h.62ZM373.49,85.43l-.12-.61h-.01s.13.61.13.61ZM371.31,85.45l-.05.62h0s.04-.62.04-.62ZM370.91,85.38l-.44.44.07.07.09.04.28-.55ZM371.03,68.63l.08.61h.04s.04-.01.04-.01l-.15-.6ZM380.6,69.73l-.34.51h0s.34-.51.34-.51ZM378.7,78.37l-.21-.58-1.02.37.83.69.39-.48ZM379.94,79.87l.51-.34h0s-.51.34-.51.34ZM378.46,71.47l-.34.52h0s0,0,0,0l.32-.53ZM373.73,70.86v-.62h-.62v.62h.62ZM373.73,76.54h-.62v.62h.62v-.62ZM383.39,85.05l-.49.37s-.05-.08-.05-.18h1.23c0-.23-.09-.42-.19-.56l-.49.37ZM383.46,85.24h-.62c0-.06.01-.12.04-.19s.07-.12.11-.16c.08-.07.14-.07.12-.07l.13.6.13.6c.12-.03.29-.08.43-.21.17-.15.26-.35.26-.58h-.62ZM383.25,85.43l-.13-.6c-.07.02-.24.03-.55.03v1.23c.32,0,.6-.01.81-.06l-.13-.6ZM382.57,85.47v-.62h-1.08v1.23h1.08v-.62ZM381.49,85.47v-.62c-.47,0-.74-.02-.85-.04l-.11.61-.11.61c.23.04.61.06,1.07.06v-.62ZM380.53,85.43l.18-.59s-.02,0-.02,0c0,0-.01,0-.02-.02l-.51.34-.51.34c.17.26.41.44.71.53l.18-.59ZM380.15,85.15l.52-.33-3.05-4.79-.52.33-.52.33,3.05,4.79.52-.33ZM377.1,80.36l.52-.33c-.3-.48-.58-.86-.84-1.12l-.44.44-.44.44c.15.15.38.44.67.9l.52-.33ZM376.35,79.35l.45-.42c-.27-.29-.6-.51-.98-.62l-.17.59-.17.59c.15.04.29.13.43.27l.45-.42ZM375.65,78.91l.17-.59c-.35-.1-.8-.14-1.32-.14v1.23c.48,0,.79.04.98.09l.17-.59ZM374.5,78.79v-.62h-.77v1.23h.77v-.62ZM373.73,78.79h-.62v6.38h1.23v-6.38h-.62ZM373.73,85.17h-.62s.02-.15.1-.25c.08-.08.16-.1.16-.1l.12.61.12.61c.16-.03.36-.11.51-.28.16-.18.22-.4.22-.59h-.62ZM373.49,85.43l-.13-.6s-.02,0-.07,0c-.05,0-.12,0-.2.01-.17,0-.4.01-.7.01v1.23c.3,0,.55,0,.75-.01.18,0,.36-.02.49-.05l-.13-.6ZM372.39,85.47v-.62h-.26v1.23h.26v-.62ZM372.13,85.47v-.62c-.32,0-.58,0-.78-.02l-.04.62-.04.62c.24.02.53.03.86.03v-.62ZM371.31,85.45l.05-.62c-.09,0-.15-.01-.19-.02-.02,0-.03,0-.03,0,0,0,0,0,.01,0,0,0,.02,0,.04.02l-.28.55-.28.55c.11.06.23.08.32.1.09.02.2.03.31.04l.05-.62ZM370.91,85.38l.44-.44c.11.11.11.22.11.23h-1.24c0,.19.05.44.25.65l.44-.44ZM370.84,85.17h.62v-16.35h-1.24v16.35h.62ZM370.84,68.82h.62c0,.07-.02.2-.13.31-.1.1-.2.12-.22.12l-.08-.61-.08-.61c-.14.02-.34.07-.5.23-.17.17-.23.39-.23.57h.62ZM371.03,68.63l.15.6s0,0,.04,0c.03,0,.08,0,.14-.01.12,0,.28-.01.49-.01v-1.23c-.4,0-.76.01-.97.07l.15.6ZM371.85,68.58v.62h3.47v-1.23h-3.47v.62ZM375.32,68.58v.62c2.32,0,3.93.38,4.94,1.05l.34-.51.34-.51c-1.31-.87-3.21-1.25-5.62-1.25v.62ZM380.6,69.73l-.34.52c.94.61,1.45,1.61,1.45,3.14h1.24c0-1.84-.64-3.29-2.02-4.18l-.34.52ZM382.34,73.39h-.62c0,1.11-.27,2-.79,2.71-.52.71-1.31,1.28-2.44,1.68l.21.58.21.58c1.3-.47,2.32-1.17,3.02-2.12.7-.95,1.03-2.11,1.03-3.44h-.62ZM378.7,78.37l-.39.48c.29.24.67.68,1.12,1.37l.51-.34.51-.34c-.48-.72-.93-1.28-1.36-1.64l-.39.48ZM379.94,79.87l-.51.34,3.45,5.19.51-.34.51-.34-3.45-5.19-.51.34ZM375.67,76.54v.62c1.32,0,2.42-.26,3.2-.88.81-.64,1.17-1.59,1.17-2.72h-1.24c0,.86-.26,1.4-.7,1.75-.47.37-1.24.61-2.43.61v.62ZM379.43,73.56h.62c0-1.14-.37-2.08-1.26-2.62l-.32.53-.32.53c.4.24.67.69.67,1.56h.62ZM378.46,71.47l.34-.52c-.77-.5-1.86-.71-3.17-.71v1.23c1.22,0,2.02.2,2.5.51l.34-.52ZM375.63,70.86v-.62h-1.9v1.23h1.9v-.62ZM373.73,70.86h-.62v5.68h1.23v-5.68h-.62ZM373.73,76.54v.62h1.95v-1.23h-1.95v.62ZM395.35,83.93l-.45-.42h0s.46.42.46.42ZM392.11,85.57l-.11-.61-.51.09v.52h.62ZM391.9,87.98l-.13-.6h-.04s-.04.02-.04.02l.22.58ZM389.7,87.98l.2-.59h-.02s-.02-.01-.02-.01l-.15.6ZM389.51,85.66h.62v-.56l-.56-.05-.06.61ZM387.11,85.15l.2-.58h0l-.2.58ZM385.21,84.18l.37-.49h0s-.36.49-.36.49ZM385.26,83.06l.54.3h0s-.54-.3-.54-.3ZM385.49,82.64l-.54-.3h0s.54.3.54.3ZM386.29,82.05l.29-.55h0s0,0,0,0l-.28.55ZM388.43,83.01l-.21.58h0s0,0,0,0l.19-.59ZM392.82,82.68l-.37-.49h0s.38.49.38.49ZM393.26,79.75l.48-.39h0l-.48.39ZM392.16,78.86l-.31.53h0s0,0,0,0l.3-.54ZM390.21,77.9l-.26.56h0s.25-.56.25-.56ZM387.65,76.49l.35-.51h0l-.35.51ZM386.27,75.03l-.54.29h0s.54-.29.54-.29ZM386.95,70.06l-.45-.42h0s.45.42.45.42ZM390.02,68.46l.11.61.51-.09v-.51h-.62ZM390.21,66.05l.15.6h.02s.02-.01.02-.01l-.2-.59ZM392.42,66.05l-.22.58.04.02h.04s.13-.59.13-.59ZM392.63,68.42h-.62v.54l.54.07.08-.61ZM395.89,69.57l.35-.51h0s-.35.51-.35.51ZM395.82,70.67l.55.29h0s-.55-.29-.55-.29ZM395.63,71.02l-.55-.29h0s0,.01,0,.01l.55.28ZM395.3,71.56l-.47-.4h0s.48.4.48.4ZM394.88,71.63l.37-.49-.02-.02-.03-.02-.32.53ZM393.26,70.93l-.18.59h0s0,0,0,0l.17-.6ZM389.41,71.28l.38.49h0s-.38-.49-.38-.49ZM389.08,73.98l-.47.4h0s0,.01,0,.01l.46-.41ZM390.12,74.8l-.31.53h0l.31-.53ZM391.88,75.69l-.26.56h0s.26-.56.26-.56ZM394.51,77.12l-.35.51h0l.35-.51ZM396.01,78.69l-.54.31h0s.53-.31.53-.31ZM396.52,80.81h-.62c0,1.09-.34,1.98-1.01,2.7l.45.42.45.42c.9-.97,1.34-2.16,1.34-3.54h-.62ZM395.35,83.93l-.46-.41c-.65.72-1.6,1.22-2.89,1.45l.11.61.11.61c1.49-.27,2.71-.87,3.59-1.84l-.46-.41ZM392.11,85.57h-.62v2.18h1.24v-2.18h-.62ZM392.11,87.75h-.62c0-.06.02-.17.11-.26.08-.09.16-.11.17-.11l.13.6.13.6c.15-.03.33-.11.48-.27.16-.17.21-.38.21-.57h-.62ZM391.9,87.98l-.22-.58s.03,0,0,0c-.03,0-.08.01-.15.02-.14.01-.32.02-.56.02v1.23c.26,0,.48,0,.66-.02.16-.01.35-.03.5-.09l-.22-.58ZM390.96,88.06v-.62h-.28v1.23h.28v-.62ZM390.68,88.06v-.62c-.25,0-.45,0-.59-.02-.16-.01-.21-.03-.2-.02l-.2.59-.2.59c.15.05.33.07.5.08.18.01.41.02.68.02v-.62ZM389.7,87.98l.15-.6s.12.04.19.13c.08.1.09.19.09.23h-1.23c0,.17.04.36.18.54.14.17.32.26.47.29l.15-.6ZM389.51,87.75h.62v-2.09h-1.23v2.09h.62ZM389.51,85.66l.06-.61c-.78-.07-1.53-.24-2.25-.48l-.2.58-.2.58c.81.28,1.66.46,2.54.55l.06-.61ZM387.11,85.15l.2-.58c-.72-.25-1.3-.54-1.73-.87l-.37.49-.37.49c.56.42,1.26.77,2.07,1.05l.2-.58ZM385.21,84.18l.36-.5s-.06-.05-.05-.04c0,0,.02.03.03.06.01.03.02.07.02.11h-1.23c0,.43.29.71.51.87l.36-.5ZM384.96,83.81h.62s0,.05,0,.03c0-.02.01-.04.03-.09.04-.09.1-.22.19-.39l-.54-.3-.54-.3c-.11.19-.2.37-.26.53-.06.14-.12.33-.12.53h.62ZM385.26,83.06l.54.3.24-.42-.54-.3-.54-.3-.23.42.54.3ZM385.49,82.64l.54.3c.14-.25.23-.38.27-.42l-.47-.4-.48-.4c-.12.14-.25.36-.39.61l.54.3ZM385.82,82.12l.47.4s0,0-.04.03c-.04.02-.11.05-.2.05v-1.23c-.34,0-.58.21-.71.36l.48.4ZM386.06,81.98v.62s-.04,0-.05,0c-.01,0-.02,0-.02,0,0,0,0,0,.03.01l.28-.55.28-.55c-.13-.06-.31-.14-.51-.14v.62ZM386.29,82.05l-.29.55c.79.42,1.53.75,2.22,1l.21-.58.21-.58c-.62-.22-1.31-.53-2.05-.93l-.29.55ZM388.43,83.01l-.19.59c.74.24,1.52.36,2.35.36v-1.23c-.71,0-1.36-.1-1.97-.3l-.19.59ZM390.59,83.34v.62c1.02,0,1.91-.24,2.61-.79l-.38-.49-.38-.49c-.43.33-1.02.53-1.85.53v.62ZM392.82,82.68l.37.49c.73-.55,1.11-1.3,1.11-2.21h-1.23c0,.5-.19.89-.62,1.22l.37.49ZM393.68,80.97h.62c0-.6-.18-1.15-.56-1.61l-.48.39-.48.39c.19.23.28.49.28.83h.62ZM393.26,79.75l.48-.39c-.34-.41-.77-.76-1.28-1.04l-.3.54-.3.54c.4.22.7.47.92.74l.48-.39ZM392.16,78.86l.31-.53c-.48-.28-1.16-.61-2.01-.99l-.25.56-.25.56c.84.37,1.46.68,1.89.93l.31-.53ZM390.21,77.9l.26-.56c-1.06-.49-1.88-.94-2.46-1.35l-.35.51-.35.51c.67.47,1.56.95,2.65,1.46l.26-.56ZM387.65,76.49l.35-.51c-.57-.4-.96-.82-1.2-1.25l-.54.3-.54.3c.35.63.89,1.18,1.57,1.66l.35-.51ZM386.27,75.03l.54-.29c-.24-.44-.37-.98-.37-1.65h-1.24c0,.83.17,1.59.52,2.24l.54-.29ZM385.82,73.09h.62c0-1.06.33-1.92.96-2.61l-.45-.42-.45-.42c-.86.94-1.29,2.1-1.29,3.45h.62ZM386.95,70.06l.45.42c.66-.72,1.56-1.19,2.73-1.41l-.11-.61-.11-.61c-1.39.25-2.55.84-3.42,1.78l.45.42ZM390.02,68.46h.62v-2.18h-1.23v2.18h.62ZM390.02,66.28h.62s-.01.14-.09.23c-.08.09-.16.12-.19.13l-.15-.6-.15-.6c-.16.04-.34.12-.47.3-.14.17-.18.37-.18.54h.62ZM390.21,66.05l.2.59s.04-.01.2-.02c.14-.01.34-.02.59-.02v-1.23c-.27,0-.49,0-.68.02-.17.01-.35.03-.5.08l.2.59ZM391.2,65.98v.62h.28v-1.23h-.28v.62ZM391.48,65.98v.62c.24,0,.43,0,.56.02.07,0,.12.01.15.02.04,0,.03,0,.01,0l.22-.58.22-.58c-.15-.06-.34-.08-.5-.09-.18-.01-.4-.02-.66-.02v.62ZM392.42,66.05l-.13.6s-.09-.02-.17-.11c-.08-.1-.11-.2-.11-.26h1.23c0-.18-.05-.39-.21-.57-.15-.16-.33-.24-.48-.27l-.13.6ZM392.63,66.28h-.62v2.14h1.23v-2.14h-.62ZM392.63,68.42l-.08.61c1.23.16,2.22.52,3,1.05l.35-.51.35-.51c-.97-.66-2.16-1.07-3.53-1.25l-.08.61ZM395.89,69.57l-.35.51s.04.04.03.02c-.02-.03-.06-.09-.06-.19h1.23c0-.42-.3-.69-.5-.83l-.35.51ZM396.12,69.9h-.62s0-.06,0-.04c0,.02-.01.05-.04.1-.04.1-.1.24-.2.43l.55.28.55.28c.11-.2.19-.39.26-.55.05-.13.12-.32.12-.51h-.62ZM395.82,70.67l-.55-.29-.19.35.55.29.54.29.19-.35-.55-.29ZM395.63,71.02l-.55-.28c-.12.24-.2.36-.24.41l.47.4.47.4c.14-.17.28-.4.41-.67l-.55-.28ZM395.3,71.56l-.48-.4s0,0,.04-.03c.04-.02.11-.05.2-.05v1.23c.34,0,.58-.21.71-.36l-.47-.4ZM395.07,71.7v-.62c.1,0,.17.04.18.05l-.37.49-.37.49c.14.11.33.19.56.19v-.62ZM394.88,71.63l.32-.53c-.56-.34-1.15-.6-1.77-.77l-.17.59-.17.6c.51.14.99.35,1.46.64l.32-.53ZM393.26,70.93l.18-.59c-.61-.19-1.22-.29-1.82-.29v1.23c.47,0,.95.08,1.46.23l.18-.59ZM391.62,70.67v-.62c-1.03,0-1.92.22-2.59.74l.38.49.38.49c.37-.29.95-.48,1.82-.48v-.62ZM389.41,71.28l-.38-.49c-.66.51-.99,1.22-.99,2.06h1.23c0-.47.17-.82.51-1.09l-.38-.49ZM388.66,72.85h-.62c0,.57.2,1.09.57,1.53l.47-.4.47-.4c-.19-.22-.27-.45-.27-.72h-.62ZM389.08,73.98l-.46.41c.33.37.73.68,1.18.94l.31-.53.31-.53c-.36-.21-.65-.44-.88-.7l-.46.41ZM390.12,74.8l-.31.53c.43.25,1.03.55,1.81.92l.26-.56.26-.56c-.76-.36-1.33-.65-1.71-.87l-.31.53ZM391.88,75.69l-.26.56c1.08.49,1.92.95,2.53,1.38l.35-.51.35-.51c-.7-.48-1.61-.98-2.72-1.48l-.26.56ZM394.51,77.12l-.35.51c.59.41,1.03.87,1.32,1.37l.54-.31.53-.31c-.4-.69-.96-1.27-1.68-1.77l-.35.51ZM396.01,78.69l-.53.32c.28.46.43,1.05.43,1.8h1.24c0-.91-.19-1.73-.6-2.43l-.53.32Z"/>
  </g>
  <g class="cls-12">
    <path id="path17" class="cls-13" d="M370.33,58.69l-.17.59h0s.01,0,.01,0l.15-.6ZM370.23,48.05v-.62h-.62v.62h.62ZM376.07,48.79l.33-.52h0l-.33.52ZM376.14,53.84l-.39-.48h0s.39.48.39.48ZM371.65,54.61l.08-.61-.7-.09v.71h.62ZM375.09,53.01l-.39-.48h0l.39.48ZM375.01,49.66l-.32.53h0l.32-.53ZM371.65,49.19v-.62h-.62v.62h.62ZM371.65,53.49h-.62v.53l.53.08.09-.61ZM370.85,58.72v-.62c-.13,0-.22,0-.29,0-.04,0-.06,0-.07,0-.02,0-.02,0,0,0l-.15.6-.15.6c.17.04.42.05.67.05v-.62ZM370.33,58.69l.17-.59c.06.02.16.06.24.17.09.11.1.22.1.29h-1.23c0,.14.04.31.16.46.12.15.27.23.4.26l.17-.59ZM370.23,58.55h.62v-10.51h-1.23v10.51h.62ZM370.23,48.05v.62h2.49v-1.23h-2.49v.62ZM372.72,48.05v.62c1.41,0,2.39.24,3.02.64l.33-.52.33-.52c-.91-.59-2.17-.84-3.68-.84v.62ZM376.07,48.79l-.33.52c.54.35.87.95.87,1.98h1.23c0-1.32-.44-2.38-1.44-3.02l-.33.52ZM377.22,51.29h-.62c0,.97-.31,1.63-.85,2.07l.39.48.39.48c.9-.72,1.31-1.77,1.31-3.03h-.62ZM376.14,53.84l-.39-.48c-.57.46-1.39.73-2.54.73v1.23c1.34,0,2.47-.31,3.33-1.01l-.39-.48ZM373.2,54.72v-.62c-.5,0-.99-.03-1.47-.1l-.08.61-.08.61c.54.07,1.09.11,1.64.11v-.62ZM371.65,54.61h-.62v3.94h1.23v-3.94h-.62ZM371.65,58.55h-.62c0-.09.03-.22.13-.33.09-.1.18-.13.22-.14l.15.6.15.6c.12-.03.27-.09.4-.24.14-.15.19-.34.19-.5h-.62ZM371.53,58.69l-.15-.6s.02,0,0,0c-.02,0-.04,0-.08,0-.07,0-.17,0-.31,0v1.23c.26,0,.52,0,.68-.05l-.15-.6ZM371,58.72v-.62h-.15v1.23h.15v-.62ZM373.04,53.57v.62c.97,0,1.82-.2,2.43-.7l-.39-.48-.39-.48c-.31.25-.83.43-1.66.43v.62ZM375.09,53.01l.39.48c.64-.52.92-1.28.92-2.15h-1.24c0,.6-.18.96-.47,1.19l.39.48ZM375.78,51.34h.62c0-.94-.31-1.74-1.06-2.2l-.32.53-.32.53c.27.17.48.48.48,1.15h.62ZM375.01,49.66l.32-.53c-.65-.4-1.53-.57-2.55-.57v1.23c.92,0,1.52.15,1.9.38l.32-.53ZM372.79,49.19v-.62h-1.14v1.23h1.14v-.62ZM371.65,49.19h-.62v4.3h1.23v-4.3h-.62ZM371.65,53.49l-.09.61c.44.06.94.1,1.48.1v-1.23c-.5,0-.93-.03-1.3-.08l-.09.61ZM378.92,57.47l-.46.41h0s.46-.41.46-.41ZM378.28,50.54l-.56-.27h0s.56.27.56.27ZM386.22,49.29l-.46.41h0s.46-.41.46-.41ZM386.86,56.21l-.56-.27h0s.56.27.56.27ZM385.13,58.18l.32.53h0s-.32-.53-.32-.53ZM385.05,56.51l-.48-.39h0l.48.39ZM385.13,50.18l-.49.38h0s.48-.38.48-.38ZM380.07,50.24l-.48-.39h0s.48.39.48.39ZM380.01,56.6l-.49.38h0s.48-.38.48-.38ZM382.41,58.86v-.62c-1.36,0-2.35-.42-3.04-1.19l-.46.41-.46.41c.97,1.09,2.32,1.6,3.96,1.6v-.62ZM378.92,57.47l.46-.41c-.69-.78-1.08-1.93-1.08-3.53h-1.23c0,1.79.43,3.27,1.39,4.35l.46-.41ZM377.69,53.53h.62c0-1.08.19-1.98.54-2.73l-.56-.26-.56-.26c-.44.95-.65,2.04-.65,3.25h.62ZM378.28,50.54l.56.27c.36-.75.86-1.3,1.51-1.69l-.32-.53-.32-.53c-.87.52-1.54,1.27-1.99,2.22l.56.27ZM380.03,48.58l.32.53c.65-.39,1.44-.59,2.39-.59v-1.23c-1.14,0-2.16.25-3.03.77l.32.53ZM382.74,47.9v.62c1.37,0,2.34.42,3.02,1.18l.46-.41.46-.41c-.96-1.09-2.31-1.6-3.95-1.6v.62ZM386.22,49.29l-.46.41c.7.78,1.09,1.92,1.09,3.52h1.23c0-1.79-.44-3.26-1.4-4.34l-.46.41ZM387.47,53.22h-.62c0,1.07-.19,1.98-.55,2.73l.56.27.56.27c.45-.95.67-2.04.67-3.26h-.62ZM386.86,56.21l-.56-.26c-.35.75-.85,1.31-1.5,1.7l.32.53.32.53c.87-.53,1.53-1.28,1.97-2.24l-.56-.26ZM385.13,58.18l-.32-.53c-.65.39-1.44.59-2.39.59v1.23c1.14,0,2.16-.25,3.03-.77l-.32-.53ZM382.44,57.66v.62c1.28,0,2.33-.45,3.09-1.39l-.48-.39-.48-.39c-.49.61-1.17.93-2.13.93v.62ZM385.05,56.51l.48.39c.74-.92,1.07-2.15,1.07-3.62h-1.23c0,1.3-.29,2.22-.8,2.84l.48.39ZM385.98,53.28h.62c0-1.43-.3-2.62-1-3.48l-.48.39-.48.39c.45.56.72,1.43.72,2.71h.62ZM385.13,50.18l.49-.38c-.7-.9-1.72-1.32-2.95-1.32v1.23c.92,0,1.55.3,1.97.84l.49-.38ZM382.67,49.1v-.62c-1.27,0-2.33.44-3.07,1.37l.48.39.48.39c.48-.59,1.15-.91,2.11-.91v-.62ZM380.07,50.24l-.48-.38c-.72.91-1.04,2.14-1.04,3.61h1.24c0-1.31.29-2.23.77-2.85l-.48-.38ZM379.17,53.47h-.62c0,1.44.3,2.64.98,3.51l.49-.38.49-.38c-.45-.57-.71-1.46-.71-2.75h-.62ZM380.01,56.6l-.48.38c.7.88,1.7,1.3,2.91,1.3v-1.23c-.9,0-1.52-.29-1.95-.83l-.48.38ZM396.16,58.49l.52-.33h0s-.52.33-.52.33ZM396.11,58.67l.24.57h.02s.02-.02.02-.02l-.28-.55ZM394.76,58.69l-.15.6h0s0,0,0,0l.13-.6ZM394.57,58.54l-.53.32h0s.52-.32.52-.32ZM392.72,55.5l.53-.32h0s-.53.32-.53.32ZM392.14,54.73l-.45.42h.01s.01.03.01.03l.42-.45ZM391.64,54.43l-.17.59h.02s.02,0,.02,0l.13-.6ZM390.1,54.36v-.62h-.62v.62h.62ZM388.78,58.69l-.17.59h.01s.01,0,.01,0l.15-.6ZM388.67,48.05v-.62h-.62v.62h.62ZM394.64,48.76l-.34.52h0s.33-.52.33-.52ZM393.24,54.14l-.18-.59-1.15.35.95.73.38-.49ZM393.62,54.54l-.49.38h0l.49-.38ZM394.11,55.25l.52-.33h0s-.52.33-.52.33ZM393.59,49.62l-.33.52h0s.33-.52.33-.52ZM390.1,49.19v-.62h-.62v.62h.62ZM390.1,53.23h-.62v.62h.62v-.62ZM396.16,58.49l-.52.33s-.1-.17-.05-.37c.05-.21.2-.3.25-.33l.28.55.28.55c.13-.06.33-.21.39-.48.07-.26-.03-.47-.1-.58l-.52.33ZM396.11,58.67l-.24-.57s.03-.01.04-.01c0,0,.01,0,.01,0,0,0,0,0-.03,0-.04,0-.1,0-.19,0v1.23c.12,0,.23,0,.33-.01.09,0,.21-.03.33-.08l-.24-.57ZM395.7,58.72v-.62h-.4v1.23h.4v-.62ZM395.3,58.72v-.62c-.13,0-.23,0-.3,0-.08,0-.11,0-.1,0l-.13.6-.13.6c.17.04.41.04.67.04v-.62ZM394.76,58.69l.15-.6s.08.03.12.06c.03.03.05.05.06.07l-.52.33-.52.33c.12.19.31.36.57.42l.15-.6ZM394.57,58.54l.53-.32-1.85-3.04-.53.32-.53.32,1.85,3.04.53-.32ZM392.72,55.5l.53-.33c-.23-.38-.46-.69-.68-.9l-.42.45-.42.45c.1.09.26.29.48.65l.52-.33ZM392.14,54.73l.45-.42c-.22-.24-.5-.41-.83-.48l-.13.6-.13.6s.11.04.18.11l.45-.42ZM391.64,54.43l.17-.59c-.26-.07-.62-.1-1.01-.1v1.23c.38,0,.59.03.68.05l.17-.59ZM390.79,54.36v-.62h-.7v1.23h.7v-.62ZM390.1,54.36h-.62v4.19h1.24v-4.19h-.62ZM390.1,58.55h-.62c0-.09.03-.22.13-.33.09-.1.19-.13.22-.14l.15.6.15.6c.12-.03.27-.09.4-.24.14-.15.19-.34.19-.5h-.62ZM389.98,58.69l-.15-.6s.02,0,0,0c-.02,0-.04,0-.08,0-.07,0-.17,0-.31,0v1.23c.26,0,.52,0,.68-.05l-.15-.6ZM389.44,58.72v-.62h-.15v1.23h.15v-.62ZM389.3,58.72v-.62c-.13,0-.22,0-.29,0-.04,0-.06,0-.08,0-.02,0-.01,0,0,0l-.15.6-.15.6c.17.04.42.05.67.05v-.62ZM388.78,58.69l.17-.59c.06.02.16.06.24.17.08.11.1.22.1.29h-1.24c0,.14.04.31.16.46.12.15.27.23.4.26l.17-.59ZM388.67,58.55h.62v-10.51h-1.24v10.51h.62ZM388.67,48.05v.62h2.71v-1.23h-2.71v.62ZM391.39,48.05v.62c1.39,0,2.34.23,2.92.61l.34-.52.34-.52c-.88-.57-2.1-.81-3.6-.81v.62ZM394.64,48.76l-.33.52c.51.33.81.86.81,1.75h1.24c0-1.21-.43-2.19-1.38-2.79l-.33.52ZM395.74,51.03h-.62c0,.67-.18,1.18-.49,1.57-.32.4-.82.72-1.58.95l.18.59.18.59c.92-.28,1.66-.72,2.18-1.36.52-.65.76-1.44.76-2.34h-.62ZM393.24,54.14l-.38.49c.07.06.17.15.27.29l.49-.38.49-.38c-.15-.2-.32-.37-.5-.51l-.38.49ZM393.62,54.54l-.49.38c.11.15.27.37.46.67l.52-.33.52-.33c-.2-.31-.37-.56-.52-.75l-.49.38ZM394.11,55.25l-.52.33,2.05,3.25.52-.33.52-.33-2.04-3.25-.52.33ZM391.59,53.23v.62c.96,0,1.79-.19,2.39-.66.63-.5.9-1.23.9-2.07h-1.23c0,.57-.17.9-.44,1.1-.29.23-.8.4-1.63.4v.62ZM394.27,51.11h.62c0-.85-.28-1.58-.97-2.02l-.33.52-.33.52c.22.14.39.4.39.97h.62ZM393.59,49.62l.33-.52c-.6-.38-1.43-.53-2.41-.53v1.23c.9,0,1.45.14,1.74.33l.33-.52ZM391.52,49.19v-.62h-1.42v1.23h1.42v-.62ZM390.1,49.19h-.62v4.05h1.24v-4.05h-.62ZM390.1,53.23v.62h1.5v-1.23h-1.5v.62Z"/>
  </g>
  <text class="cls-6" transform="translate(-1.23 94.62)"><tspan class="cls-10" x="0" y="0">22</tspan><tspan class="cls-14" x="122.94" y="0">GB</tspan></text>
  <g>
    <path id="rect17" class="cls-11" d="M300.33,29.66h0c8.18,0,14.82,6.63,14.82,14.82h0c0,8.18-6.63,14.82-14.82,14.82h0c-8.18,0-14.82-6.63-14.82-14.82h0c0-8.18,6.63-14.82,14.82-14.82Z"/>
    <path id="path18" class="cls-5" d="M306.01,38.78c-.74-.74-1.62-1.32-2.59-1.73-.97-.4-2.02-.6-3.06-.6-4.4,0-7.99,3.57-7.99,7.96,0,1.39.36,2.77,1.07,3.97l-1.14,4.12,4.24-1.1c1.17.63,2.48.96,3.82.96,4.4,0,7.99-3.56,7.99-7.96.01-1.04-.2-2.08-.6-3.04-.39-.97-.99-1.85-1.73-2.59ZM300.36,51.02c-1.19,0-2.36-.31-3.39-.92l-.24-.14-2.51.66.67-2.45-.15-.24c-.67-1.05-1.02-2.28-1.02-3.52,0-3.64,2.98-6.61,6.64-6.61.88,0,1.74.17,2.55.5s1.53.82,2.15,1.43c.62.61,1.11,1.34,1.44,2.15.33.8.5,1.67.5,2.53,0,3.65-2.98,6.61-6.64,6.61ZM304.01,46.08c-.2-.1-1.19-.58-1.37-.65-.18-.06-.31-.1-.44.1-.13.2-.52.65-.64.78-.12.13-.23.15-.43.05-.2-.1-.85-.31-1.6-.99-.59-.52-1-1.17-1.12-1.37-.11-.19-.01-.3.09-.4.09-.09.2-.23.3-.35.1-.11.13-.2.2-.33.06-.13.03-.25-.02-.35-.05-.1-.45-1.07-.62-1.47-.16-.38-.32-.33-.45-.34h-.38c-.1,0-.2.02-.29.06-.09.05-.17.11-.24.18-.18.2-.7.68-.7,1.67s.72,1.92.82,2.06c.1.13,1.41,2.14,3.42,3,.36.16.75.3,1.14.41.47.16.91.13,1.25.08.38-.05,1.19-.48,1.35-.94.17-.46.17-.86.12-.94-.06-.08-.18-.13-.38-.23Z"/>
    <path id="path19" class="cls-4" d="M267.12,84.65c-.25,0-.46,0-.62-.02-.15-.01-.25-.03-.29-.07-.05-.03-.08-.09-.1-.17l-3.16-9.49c-.05-.14-.01-.22.1-.26s.39-.05.81-.05h.21c.41,0,.68.02.79.05.12.02.19.1.22.22l1.64,5.55c.3,1.14.5,1.95.6,2.44.13-.62.34-1.51.64-2.66l1.49-5.32c.03-.09.07-.16.1-.19.05-.03.14-.06.28-.07.15-.01.34-.02.57-.02h.15c.39,0,.64.02.74.05.11.02.19.1.22.22l1.47,5.13c.24.89.49,1.84.74,2.85.32-1.39.55-2.33.68-2.82l1.45-5.17c.03-.09.07-.16.1-.19.05-.03.14-.06.29-.07.15-.01.34-.02.57-.02h.1c.4,0,.66.02.78.07.11.03.15.12.1.24l-3.01,9.47c-.05.13-.13.21-.24.24-.11.02-.38.03-.8.03h-.21c-.46,0-.76-.01-.88-.03-.13-.03-.21-.12-.24-.24l-1.18-4.03c-.36-1.36-.63-2.5-.83-3.41-.23,1-.52,2.17-.86,3.49l-1.12,3.94c-.04.12-.12.19-.24.22-.12.03-.38.05-.79.05h-.29ZM286.97,74.59c.24,0,.43,0,.57.02.15.01.24.03.28.07.05.03.07.09.07.17v9.54c0,.08-.02.14-.07.17-.04.03-.13.06-.28.07-.14.01-.33.02-.57.02h-.19c-.24,0-.44,0-.59-.02-.14-.01-.23-.03-.28-.07-.04-.03-.05-.09-.05-.17v-4.05h-4.55v4.05c0,.08-.02.14-.07.17-.03.03-.13.06-.28.07-.14.01-.33.02-.57.02h-.19c-.24,0-.44,0-.59-.02-.14-.01-.23-.03-.28-.07-.03-.03-.05-.09-.05-.17v-9.54c0-.08.02-.14.05-.17.05-.03.14-.06.28-.07.15-.01.35-.02.59-.02h.19c.24,0,.43,0,.57.02.15.01.24.03.28.07.05.03.07.09.07.17v3.94h4.55v-3.94c0-.08.02-.14.05-.17.05-.03.14-.06.28-.07.15-.01.35-.02.59-.02h.19ZM299.32,84.46c0,.08-.06.13-.19.16-.11.02-.35.03-.69.03h-.19c-.43,0-.7-.01-.83-.03-.11-.03-.2-.11-.24-.22l-.86-2.3h-4.17l-.88,2.3c-.05.12-.13.19-.24.22-.11.02-.37.03-.78.03h-.15c-.4,0-.66-.02-.76-.05-.1-.05-.13-.13-.09-.26l3.96-9.49c.06-.12.13-.18.22-.21.1-.03.36-.05.76-.05h.12c.42,0,.67.02.78.05.1.02.18.09.22.21l3.98,9.47.04.14ZM295.76,80.62l-1.52-4.03-1.54,4.03h3.06ZM306.42,74.59c.1,0,.17.05.21.14.05.08.07.28.07.59v.1c0,.31-.02.51-.07.61-.04.08-.1.12-.21.12h-2.77v8.25c0,.08-.02.14-.05.17-.03.03-.13.06-.28.07-.15.01-.35.02-.59.02h-.19c-.24,0-.44,0-.59-.02-.14-.01-.23-.03-.28-.07-.03-.03-.05-.09-.05-.17v-8.25h-2.78c-.1,0-.18-.05-.22-.14-.03-.09-.05-.29-.05-.59v-.1c0-.3.02-.5.05-.59.05-.09.12-.14.22-.14h7.57ZM311.02,84.82c-.63,0-1.25-.08-1.85-.24-.6-.16-1.14-.39-1.61-.67-.07-.06-.1-.12-.1-.19,0-.12.07-.29.22-.54l.15-.26c.15-.25.26-.4.33-.45.08-.05.16-.05.24,0,.37.23.77.42,1.21.55.45.13.89.19,1.31.19.6,0,1.07-.09,1.42-.28.36-.2.54-.49.54-.88,0-.3-.09-.55-.28-.76-.18-.21-.39-.37-.62-.48-.22-.13-.61-.32-1.18-.57-.68-.32-1.2-.59-1.57-.8-.36-.22-.66-.5-.92-.85-.25-.36-.38-.8-.38-1.33,0-.88.33-1.57,1-2.07.68-.52,1.56-.78,2.63-.78s2.03.25,2.9.74c.07.03.1.09.1.17,0,.13-.07.31-.21.55l-.15.28c-.09.16-.17.27-.23.33-.05.06-.09.09-.14.09s-.09-.02-.14-.05c-.71-.36-1.4-.54-2.06-.54-.52,0-.93.1-1.24.31-.31.2-.47.46-.47.8s.14.59.41.81c.29.21.8.48,1.52.81.64.29,1.17.56,1.57.81.4.25.74.58,1,.99.28.4.42.89.42,1.47,0,.85-.34,1.54-1.02,2.06-.68.52-1.62.78-2.84.78ZM325.61,84.46c0,.08-.06.13-.19.16-.12.02-.35.03-.69.03h-.19c-.43,0-.7-.01-.83-.03-.12-.03-.2-.11-.24-.22l-.86-2.3h-4.17l-.88,2.3c-.05.12-.13.19-.24.22-.11.02-.38.03-.78.03h-.16c-.4,0-.66-.02-.76-.05-.1-.05-.13-.13-.09-.26l3.96-9.49c.06-.12.13-.18.22-.21.1-.03.36-.05.76-.05h.12c.41,0,.67.02.78.05.1.02.18.09.22.21l3.98,9.47.03.14ZM322.05,80.62l-1.52-4.03-1.54,4.03h3.06ZM327.89,84.65c-.24,0-.44,0-.59-.02-.14-.01-.23-.03-.28-.07-.04-.03-.05-.09-.05-.17v-9.6c.05-.1.1-.16.17-.17.08-.02.28-.03.59-.03h1.9c1.56,0,2.73.24,3.51.71.8.46,1.19,1.26,1.19,2.4s-.38,1.92-1.12,2.51c-.74.58-1.76.86-3.08.86-.42,0-.8-.02-1.14-.05v3.37c0,.08-.02.14-.07.17-.04.03-.13.06-.28.07-.14.01-.33.02-.57.02h-.19ZM330.04,79.53c.75,0,1.31-.14,1.69-.43.38-.29.57-.73.57-1.33s-.21-1.04-.62-1.28c-.4-.24-1.02-.36-1.85-.36h-.83v3.35c.28.03.62.05,1.04.05ZM336.9,84.65c-.24,0-.44,0-.59-.02-.14-.01-.23-.03-.28-.07-.03-.03-.05-.09-.05-.17v-9.6c.05-.1.1-.16.17-.17.08-.02.28-.03.59-.03h1.9c1.56,0,2.73.24,3.51.71.8.46,1.19,1.26,1.19,2.4s-.37,1.92-1.12,2.51c-.74.58-1.76.86-3.08.86-.42,0-.8-.02-1.14-.05v3.37c0,.08-.02.14-.07.17-.03.03-.13.06-.28.07-.14.01-.33.02-.57.02h-.19ZM339.05,79.53c.75,0,1.31-.14,1.69-.43.38-.29.57-.73.57-1.33s-.21-1.04-.62-1.28c-.4-.24-1.02-.36-1.85-.36h-.83v3.35c.28.03.62.05,1.04.05ZM270.74,104.65c-.24,0-.44,0-.59-.02-.14-.01-.23-.04-.28-.07-.04-.04-.05-.09-.05-.17v-9.54c0-.08.02-.14.05-.17.05-.04.14-.06.28-.07.15-.01.35-.02.59-.02h.19c.24,0,.43,0,.57.02.15.01.24.03.28.07.05.03.07.09.07.17v9.54c0,.08-.02.14-.07.17-.03.03-.13.06-.28.07-.14.01-.33.02-.57.02h-.19ZM282.24,94.59c.38,0,.62.02.71.05.09.02.14.09.14.21v9.54c0,.09-.02.16-.05.19-.02.04-.1.06-.24.07h-.62c-.33,0-.55-.01-.64-.03-.09-.04-.18-.1-.28-.21l-3.6-4.65c-.76-.99-1.3-1.72-1.62-2.18.02.36.03.87.03,1.54v5.27c0,.12-.05.19-.14.23-.09.02-.32.03-.69.03h-.19c-.38,0-.62-.01-.71-.03-.09-.04-.14-.11-.14-.23v-9.54c0-.09.01-.15.04-.17.03-.04.11-.06.24-.07.14-.01.32-.02.54-.02h.12c.32,0,.52.02.61.05.09.02.19.09.29.21l3.79,4.86c.28.38.52.7.73.97l.71.97c-.04-.59-.05-1.42-.05-2.51v-4.29c0-.12.05-.18.14-.21.09-.03.33-.05.71-.05h.19ZM289.75,104.82c-1.56,0-2.76-.45-3.61-1.35-.85-.9-1.28-2.14-1.28-3.73,0-1.07.2-2.01.61-2.82.41-.81,1-1.42,1.76-1.85.77-.44,1.67-.66,2.7-.66,1.15,0,2.18.27,3.08.81.08.06.12.11.12.17,0,.1-.08.27-.23.5l-.17.28c-.14.22-.24.35-.31.4-.06.05-.13.05-.21,0-.65-.36-1.34-.54-2.09-.54-1.01,0-1.8.32-2.35.95-.54.62-.81,1.52-.81,2.68s.26,1.97.79,2.59c.53.62,1.31.93,2.33.93.37,0,.75-.05,1.14-.14.39-.09.76-.21,1.09-.36.07-.02.12-.03.16-.03.06,0,.11.03.16.1.05.07.11.19.19.36l.1.24c.1.25.15.43.15.52,0,.08-.05.15-.14.21-.95.48-2.01.73-3.18.73ZM295.48,104.65c-.31,0-.5-.01-.57-.03-.07-.04-.1-.12-.1-.24v-9.53c0-.08.02-.14.05-.17.05-.04.14-.06.28-.07.15-.01.35-.02.59-.02h.19c.24,0,.43,0,.57.02.15.01.24.03.28.07.05.03.07.09.07.17v8.25h4.37c.08,0,.13.04.15.12.02.08.04.28.04.59v.14c0,.31-.01.51-.04.59-.02.08-.08.12-.15.12h-5.72ZM307.14,104.82c-1.52,0-2.63-.31-3.34-.93-.7-.63-1.05-1.64-1.05-3.03v-6.02c0-.08.02-.14.05-.17.05-.04.14-.06.28-.07.15-.01.35-.02.59-.02h.19c.24,0,.43,0,.57.02.15.01.24.03.28.07.05.03.07.09.07.17v6c0,.82.19,1.42.57,1.8.39.38,1,.57,1.83.57s1.45-.19,1.83-.57c.39-.39.59-.99.59-1.78v-6.02c0-.08.02-.14.05-.17s.12-.06.26-.07c.15-.01.34-.02.57-.02h.23c.24,0,.44,0,.59.02.15.01.24.03.28.07.04.03.05.09.05.17v5.95c0,1.38-.37,2.4-1.12,3.06-.75.64-1.87.97-3.35.97ZM314.86,104.65c-.24,0-.44,0-.59-.02-.14-.01-.23-.04-.28-.07-.04-.04-.05-.09-.05-.17v-9.54c0-.08.02-.14.05-.17.05-.04.14-.06.28-.07.15-.01.35-.02.59-.02h.19c.24,0,.43,0,.57.02.15.01.24.03.28.07.05.03.07.09.07.17v9.54c0,.08-.02.14-.07.17-.03.03-.13.06-.28.07-.14.01-.33.02-.57.02h-.19ZM313.94,93.58c-.2,0-.32-.02-.38-.05-.06-.04-.06-.09-.02-.17l1.62-2.58c.06-.08.13-.13.23-.16s.28-.03.57-.03h.66c.24,0,.39.02.45.05.06.03.06.1,0,.19l-2.02,2.59c-.06.06-.13.1-.23.12-.08.02-.22.03-.41.03h-.47ZM319,104.65c-.31,0-.51-.01-.59-.03-.08-.02-.12-.09-.12-.19v-9.6c0-.1.04-.17.12-.19.09-.03.27-.05.54-.05h2.32c1.95,0,3.43.4,4.44,1.19,1.02.8,1.52,2.06,1.52,3.8s-.51,3.05-1.54,3.86c-1.01.81-2.48,1.21-4.41,1.21h-2.28ZM321.32,103.11c1.29,0,2.25-.28,2.89-.83.63-.56.95-1.46.95-2.68s-.32-2.1-.97-2.65c-.63-.55-1.58-.83-2.85-.83h-1.02v6.98h1ZM333.24,104.82c-1.57,0-2.77-.44-3.61-1.31-.83-.88-1.25-2.13-1.25-3.75s.46-2.99,1.37-3.92c.91-.94,2.18-1.42,3.82-1.42s2.77.44,3.6,1.31c.84.88,1.26,2.13,1.26,3.75s-.46,3-1.37,3.94c-.91.93-2.18,1.4-3.82,1.4ZM333.29,103.21c.98,0,1.73-.32,2.25-.95.53-.63.79-1.54.79-2.71s-.24-2.04-.73-2.63c-.47-.6-1.18-.9-2.13-.9s-1.71.32-2.23.95c-.52.63-.78,1.54-.78,2.71s.24,2.03.71,2.63c.48.6,1.19.9,2.11.9Z"/>
  </g>
  <text class="cls-8" transform="translate(400.89 87.71)"><tspan x="0" y="0">84</tspan></text>
  <text class="cls-7" transform="translate(477.34 65.36)"><tspan x="0" y="0">,99</tspan></text>
  <text class="cls-3" transform="translate(18 138.64)"><tspan x="0" y="0">INTERNET ACUMULATIVA + 1 APP + SVAS E SEM FIDELIDADE</tspan></text>
</svg>