<?xml version="1.0" encoding="UTF-8"?>
<svg id="svg3" xmlns="http://www.w3.org/2000/svg" version="1.1" xmlns:svg="http://www.w3.org/2000/svg" xmlns:xlink="http://www.w3.org/1999/xlink" viewBox="0 0 135 32">
  <!-- Generator: Adobe Illustrator 30.0.0, SVG Export Plug-In . SVG Version: 2.1.1 Build 123)  -->
  <defs>
    <style>
      .st0 {
        fill: none;
      }

      .st1 {
        fill: #25d366;
      }

      .st2 {
        clip-path: url(#clippath);
      }
    </style>
    <clipPath id="clippath">
      <rect class="st0" y="0" width="135" height="32"/>
    </clipPath>
  </defs>
  <g class="st2">
    <g id="g3">
      <path id="path1" class="st1" d="M50.56,18.51h-.04l-2.54-10.27h-3.06l-2.59,10.15h-.04l-2.35-10.14h-3.26l3.94,14.9h3.31l2.48-10.14h.04l2.52,10.14h3.25l3.99-14.9h-3.21l-2.43,10.27ZM66.18,13.28c-.31-.4-.73-.71-1.2-.9-.62-.23-1.28-.34-1.95-.32-.6,0-1.18.16-1.71.43-.6.3-1.1.78-1.44,1.37h-.06v-5.61h-2.95v14.9h2.95v-5.65c0-1.1.18-1.89.54-2.37.36-.48.94-.72,1.75-.72.71,0,1.2.22,1.48.66.28.44.42,1.1.42,1.99v6.09h2.95v-6.64c0-.61-.05-1.22-.18-1.83-.1-.51-.3-.98-.61-1.4ZM78.36,20.74v-5.6c0-.65-.15-1.18-.44-1.58-.29-.4-.68-.72-1.12-.93-.48-.23-.99-.38-1.52-.45-.55-.08-1.1-.11-1.65-.12-.6,0-1.2.06-1.78.18-.56.11-1.1.31-1.59.59-.47.27-.87.65-1.17,1.11-.33.52-.51,1.12-.52,1.73h2.95c.06-.58.25-1,.58-1.25.33-.24.8-.38,1.38-.38.25,0,.49.02.74.05.21.03.42.1.6.21.18.11.32.26.42.44.11.24.17.5.16.76.02.13,0,.26-.05.38-.05.12-.12.23-.22.32-.24.18-.51.3-.8.36-.38.09-.76.15-1.15.19-.43.04-.87.1-1.31.17-.45.07-.89.16-1.32.28-.42.11-.81.29-1.17.53-.35.25-.63.57-.83.95-.23.47-.34.99-.32,1.51-.01.49.08.99.28,1.44.18.39.44.73.78,1,.35.27.74.47,1.17.58.47.13.95.19,1.44.19.66,0,1.32-.1,1.96-.29.63-.19,1.21-.55,1.67-1.02.01.18.04.36.07.53.03.17.08.34.14.51h3c-.17-.31-.27-.65-.29-1-.05-.46-.08-.93-.07-1.4ZM75.41,18.96c0,.22-.02.45-.05.67-.04.29-.13.57-.28.82-.17.29-.42.53-.71.7-.32.2-.77.29-1.35.29-.23,0-.46-.02-.69-.06-.21-.04-.4-.11-.58-.22-.17-.1-.3-.25-.4-.43-.1-.21-.15-.44-.15-.67,0-.24.04-.48.15-.69.09-.18.23-.33.39-.45.17-.12.36-.22.56-.28.21-.07.43-.13.66-.17.24-.04.47-.08.71-.1.24-.03.47-.06.68-.1.2-.04.41-.09.6-.16.17-.05.33-.14.47-.26v1.1ZM83.89,9.11h-2.95v3.24h-1.8v1.98h1.79v6.36c-.02.45.07.9.27,1.31.17.32.42.59.74.78.34.19.71.31,1.09.36.43.06.87.09,1.3.09.29,0,.59,0,.9-.02.28-.01.56-.04.83-.08v-2.3c-.14.03-.29.05-.44.06-.16.01-.31.02-.48.02-.5,0-.83-.09-1-.25-.17-.17-.25-.5-.25-1v-5.34h2.17v-1.98h-2.17v-3.24ZM96.11,18.41c-.19-.34-.46-.63-.78-.86-.33-.24-.7-.42-1.09-.55-.41-.14-.83-.26-1.26-.35-.43-.1-.83-.19-1.23-.27-.36-.07-.72-.17-1.07-.28-.28-.09-.53-.22-.76-.41-.09-.08-.17-.18-.22-.29-.05-.11-.07-.23-.07-.36-.01-.19.05-.38.16-.53.11-.13.25-.24.41-.31.17-.07.35-.12.53-.14.18-.02.36-.02.54-.02.48-.01.95.09,1.38.3.39.2.6.59.64,1.16h2.81c-.03-.59-.21-1.16-.51-1.66-.27-.43-.64-.79-1.07-1.05-.45-.27-.95-.46-1.47-.56-.56-.11-1.13-.17-1.7-.17-.57,0-1.15.05-1.71.16-.53.09-1.03.28-1.5.54-.44.25-.81.62-1.07,1.05-.29.52-.43,1.12-.41,1.71-.01.42.09.83.29,1.2.19.33.46.6.78.81.34.22.7.4,1.09.52.41.13.83.25,1.26.34.84.16,1.66.39,2.47.67.59.22.89.55.89,1,0,.23-.06.46-.19.66-.12.17-.28.31-.47.42-.19.11-.4.18-.62.23-.22.05-.43.07-.66.07-.28,0-.57-.03-.84-.1-.26-.06-.5-.17-.72-.32-.21-.15-.38-.34-.51-.56-.14-.25-.2-.54-.2-.83h-2.82c0,.63.17,1.26.49,1.81.29.47.68.87,1.15,1.16.49.3,1.03.51,1.59.62.6.13,1.22.19,1.83.19.61,0,1.21-.06,1.8-.18.56-.11,1.09-.32,1.57-.62.5-.31.9-.74,1.17-1.26.27-.52.4-1.1.37-1.68.01-.44-.09-.87-.29-1.25h0ZM101.98,8.24l-5.62,14.9h3.29l1.17-3.32h5.56l1.12,3.32h3.4l-5.56-14.9h-3.35ZM101.67,17.38l1.94-5.47h.04l1.88,5.47h-3.85ZM121.11,13.81c-.41-.53-.93-.97-1.52-1.27-.68-.34-1.43-.5-2.18-.48-.63,0-1.26.13-1.83.4-.57.28-1.05.73-1.37,1.28h-.04v-1.38h-2.81v14.57h2.95v-5.11h.04c.35.52.83.93,1.39,1.2.58.27,1.21.41,1.84.41.72.01,1.43-.15,2.07-.47.58-.3,1.08-.72,1.48-1.23.4-.53.7-1.13.89-1.77.19-.68.29-1.38.29-2.09,0-.74-.09-1.48-.29-2.2-.18-.66-.48-1.29-.9-1.84ZM119.22,19.05c-.07.39-.22.76-.43,1.09-.35.5-.87.85-1.47.99-.59.14-1.21.06-1.75-.23-.32-.19-.6-.45-.8-.76-.21-.33-.36-.7-.44-1.09-.09-.42-.14-.84-.14-1.27,0-.43.04-.87.12-1.3.08-.39.22-.77.43-1.11.2-.32.47-.58.79-.78.37-.22.79-.32,1.22-.31.42-.01.83.1,1.2.31.32.2.6.47.8.79.21.34.37.72.45,1.12.09.42.14.85.13,1.27,0,.43-.04.85-.12,1.27h0ZM133.79,15.66c-.18-.67-.48-1.29-.9-1.85-.4-.53-.93-.97-1.52-1.27-.68-.34-1.43-.5-2.19-.48-.63,0-1.26.13-1.83.4-.57.28-1.05.73-1.37,1.28h-.04v-1.38h-2.82v14.57h2.95v-5.11h.04c.35.52.82.93,1.39,1.2.58.27,1.21.41,1.84.41.72.01,1.43-.15,2.07-.47.58-.3,1.08-.72,1.48-1.23.4-.53.71-1.13.89-1.77.2-.68.29-1.38.29-2.09,0-.74-.09-1.48-.28-2.19h0ZM131,19.05c-.07.39-.22.76-.43,1.09-.22.33-.52.61-.87.8-.35.19-.74.29-1.14.29s-.79-.1-1.14-.29c-.35-.19-.65-.47-.87-.8-.21-.33-.36-.7-.44-1.09-.09-.42-.14-.84-.14-1.27,0-.43.04-.87.12-1.3.08-.39.23-.77.45-1.11.2-.32.47-.58.79-.78.37-.22.79-.32,1.22-.31.42-.01.84.1,1.2.31.32.2.6.47.8.79.21.34.36.72.45,1.12.09.42.14.85.14,1.27,0,.43-.05.85-.13,1.27h-.01Z"/>
      <path id="path2" class="st1" d="M31.24,15.28c-.14-3.95-1.81-7.7-4.64-10.46C23.76,2.07,19.97.52,16.02.49h-.07c-2.66,0-5.28.69-7.59,2.01-2.31,1.32-4.24,3.22-5.6,5.51-1.36,2.29-2.1,4.9-2.14,7.56-.05,2.66.6,5.3,1.88,7.63l-1.35,8.12s0,.03,0,.05c0,.02.01.03.02.04.01.01.02.02.04.03.02,0,.03.01.05.01h.02l8.02-1.79c2.07,1,4.34,1.51,6.64,1.51h.44c2.02-.06,4.01-.52,5.86-1.35,1.84-.83,3.51-2.02,4.89-3.5,1.38-1.48,2.46-3.22,3.17-5.12.71-1.9,1.03-3.92.96-5.94ZM16.29,28.52h-.36c-2.03,0-4.03-.48-5.84-1.42l-.41-.21-5.44,1.29,1-5.51-.23-.4c-1.11-1.9-1.71-4.06-1.74-6.26-.03-2.2.52-4.38,1.59-6.3,1.07-1.93,2.62-3.54,4.5-4.69,1.88-1.15,4.03-1.78,6.22-1.84h.37c3.32,0,6.5,1.33,8.87,3.67,2.36,2.34,3.71,5.51,3.76,8.84.05,3.33-1.21,6.54-3.51,8.94-2.29,2.4-5.44,3.81-8.76,3.91h-.01Z"/>
      <path id="path3" class="st1" d="M10.6,8.43c-.19,0-.38.05-.55.12-.17.08-.33.19-.46.33-.37.38-1.39,1.28-1.45,3.17-.06,1.9,1.26,3.77,1.45,4.03.18.26,2.53,4.36,6.39,6.02,2.27.98,3.26,1.15,3.91,1.15.27,0,.47-.03.68-.04.71-.04,2.3-.86,2.65-1.75.35-.89.37-1.67.28-1.82-.09-.16-.34-.27-.72-.47-.38-.2-2.24-1.2-2.59-1.34-.13-.06-.27-.1-.41-.11-.09,0-.18.03-.26.08-.08.05-.15.11-.2.19-.31.39-1.02,1.23-1.26,1.47-.05.06-.12.11-.19.14-.07.03-.15.05-.23.05-.15,0-.29-.05-.42-.11-1.13-.48-2.15-1.17-3.03-2.02-.82-.81-1.51-1.73-2.06-2.74-.21-.39,0-.59.19-.78.19-.18.4-.44.6-.66.16-.19.3-.4.4-.62.05-.1.08-.22.08-.34,0-.12-.03-.23-.09-.34-.09-.2-.78-2.12-1.1-2.9-.26-.66-.57-.68-.84-.7-.22-.02-.48-.02-.74-.03h-.03"/>
    </g>
  </g>
</svg>